<svg xmlns="http://www.w3.org/2000/svg" width="20.356" height="17.457" viewBox="0 0 20.356 17.457">
  <g id="back_arrow" data-name="back arrow" transform="translate(0 -31.842)">
    <g id="Group_833" data-name="Group 833" transform="translate(0 31.842)">
      <path id="Path_5629" data-name="Path 5629" d="M19.132,39.141a1.455,1.455,0,0,0-.252-.019H4.52l.313-.146a2.913,2.913,0,0,0,.823-.583l4.027-4.027a1.507,1.507,0,0,0,.211-1.93,1.456,1.456,0,0,0-2.185-.189L.427,39.531a1.456,1.456,0,0,0,0,2.06h0l7.282,7.282a1.456,1.456,0,0,0,2.185-.146,1.507,1.507,0,0,0-.211-1.93l-4.02-4.034a2.913,2.913,0,0,0-.728-.532l-.437-.2H18.8a1.507,1.507,0,0,0,1.537-1.223A1.456,1.456,0,0,0,19.132,39.141Z" transform="translate(0 -31.842)" fill="#565572"/>
    </g>
  </g>
</svg>
