<svg id="calendar" xmlns="http://www.w3.org/2000/svg" width="14.387" height="14.387" viewBox="0 0 14.387 14.387">
  <g id="Group_297" data-name="Group 297" transform="translate(0 0)">
    <g id="Group_296" data-name="Group 296">
      <path id="Path_4027" data-name="Path 4027" d="M12.7,1.124h-.674V0H10.9V1.124H3.484V0H2.36V1.124H1.686A1.688,1.688,0,0,0,0,2.81V12.7a1.688,1.688,0,0,0,1.686,1.686H12.7A1.688,1.688,0,0,0,14.387,12.7V2.81A1.688,1.688,0,0,0,12.7,1.124ZM13.263,12.7a.563.563,0,0,1-.562.562H1.686a.563.563,0,0,1-.562-.562V5.283H13.263Zm0-8.542H1.124V2.81a.563.563,0,0,1,.562-.562H2.36V3.372H3.484V2.248H10.9V3.372h1.124V2.248H12.7a.563.563,0,0,1,.562.562Z" fill="#393850"/>
    </g>
  </g>
  <g id="Group_299" data-name="Group 299" transform="translate(1.79 6.702)">
    <g id="Group_298" data-name="Group 298" transform="translate(0 0)">
      <rect id="Rectangle_212" data-name="Rectangle 212" width="1.474" height="0.983" transform="translate(0 0)" fill="#393850"/>
    </g>
  </g>
  <g id="Group_301" data-name="Group 301" transform="translate(4.737 6.702)">
    <g id="Group_300" data-name="Group 300" transform="translate(0 0)">
      <rect id="Rectangle_213" data-name="Rectangle 213" width="0.983" height="0.983" transform="translate(0 0)" fill="#393850"/>
    </g>
  </g>
  <g id="Group_303" data-name="Group 303" transform="translate(6.702 6.702)">
    <g id="Group_302" data-name="Group 302" transform="translate(0 0)">
      <rect id="Rectangle_214" data-name="Rectangle 214" width="0.983" height="0.983" transform="translate(0 0)" fill="#393850"/>
    </g>
  </g>
  <g id="Group_305" data-name="Group 305" transform="translate(8.667 6.702)">
    <g id="Group_304" data-name="Group 304" transform="translate(0 0)">
      <rect id="Rectangle_215" data-name="Rectangle 215" width="0.983" height="0.983" transform="translate(0 0)" fill="#393850"/>
    </g>
  </g>
  <g id="Group_307" data-name="Group 307" transform="translate(11.124 6.702)">
    <g id="Group_306" data-name="Group 306" transform="translate(0 0)">
      <rect id="Rectangle_216" data-name="Rectangle 216" width="1.474" height="0.983" transform="translate(0 0)" fill="#393850"/>
    </g>
  </g>
  <g id="Group_309" data-name="Group 309" transform="translate(1.79 8.668)">
    <g id="Group_308" data-name="Group 308" transform="translate(0 0)">
      <rect id="Rectangle_217" data-name="Rectangle 217" width="1.474" height="0.983" fill="#393850"/>
    </g>
  </g>
  <g id="Group_311" data-name="Group 311" transform="translate(4.737 8.668)">
    <g id="Group_310" data-name="Group 310" transform="translate(0 0)">
      <rect id="Rectangle_218" data-name="Rectangle 218" width="0.983" height="0.983" fill="#393850"/>
    </g>
  </g>
  <g id="Group_313" data-name="Group 313" transform="translate(6.702 8.668)">
    <g id="Group_312" data-name="Group 312" transform="translate(0 0)">
      <rect id="Rectangle_219" data-name="Rectangle 219" width="0.983" height="0.983" fill="#393850"/>
    </g>
  </g>
  <g id="Group_315" data-name="Group 315" transform="translate(8.667 8.668)">
    <g id="Group_314" data-name="Group 314" transform="translate(0 0)">
      <rect id="Rectangle_220" data-name="Rectangle 220" width="0.983" height="0.983" fill="#393850"/>
    </g>
  </g>
  <g id="Group_317" data-name="Group 317" transform="translate(1.79 11.124)">
    <g id="Group_316" data-name="Group 316" transform="translate(0 0)">
      <rect id="Rectangle_221" data-name="Rectangle 221" width="1.474" height="0.983" fill="#393850"/>
    </g>
  </g>
  <g id="Group_319" data-name="Group 319" transform="translate(4.737 11.124)">
    <g id="Group_318" data-name="Group 318" transform="translate(0 0)">
      <rect id="Rectangle_222" data-name="Rectangle 222" width="0.983" height="0.983" fill="#393850"/>
    </g>
  </g>
  <g id="Group_321" data-name="Group 321" transform="translate(6.702 11.124)">
    <g id="Group_320" data-name="Group 320" transform="translate(0 0)">
      <rect id="Rectangle_223" data-name="Rectangle 223" width="0.983" height="0.983" fill="#393850"/>
    </g>
  </g>
  <g id="Group_323" data-name="Group 323" transform="translate(8.667 11.124)">
    <g id="Group_322" data-name="Group 322" transform="translate(0 0)">
      <rect id="Rectangle_224" data-name="Rectangle 224" width="0.983" height="0.983" fill="#393850"/>
    </g>
  </g>
  <g id="Group_325" data-name="Group 325" transform="translate(11.124 8.668)">
    <g id="Group_324" data-name="Group 324" transform="translate(0 0)">
      <rect id="Rectangle_225" data-name="Rectangle 225" width="1.474" height="0.983" fill="#393850"/>
    </g>
  </g>
</svg>
