<svg xmlns="http://www.w3.org/2000/svg" width="30" height="30" viewBox="0 0 30 30">
  <g id="edit_profile_pen" data-name="edit profile pen" transform="translate(-213 -176)">
    <g id="Rectangle_464" data-name="Rectangle 464" transform="translate(213 176)" fill="#343bba" stroke="#fff" stroke-width="3">
      <rect width="30" height="30" rx="15" stroke="none"/>
      <rect x="1.5" y="1.5" width="27" height="27" rx="13.5" fill="none"/>
    </g>
    <path id="pen" d="M10.622.454a1.653,1.653,0,0,0-2.335,0L7.7,1.041,1.48,7.26l-.013.013s0,.007-.007.007-.017.02-.023.03,0,0,0,.007l-.017.026s0,.007-.007.01-.007.017-.01.026,0,0,0,.007L.017,11.537a.325.325,0,0,0,.079.337.332.332,0,0,0,.235.1.39.39,0,0,0,.106-.017l4.148-1.384s0,0,.007,0a.12.12,0,0,0,.03-.013l.007,0,.033-.02c.01-.007.02-.016.03-.023s.007,0,.007-.007.01-.007.013-.013L11.517,3.68a1.652,1.652,0,0,0,0-2.335ZM4.479,9.793l-2.3-2.3L7.934,1.742l2.3,2.3ZM1.857,8.106l2.008,2.008-3.015,1Zm9.194-4.888-.35.353-2.3-2.3L8.756.919a.991.991,0,0,1,1.4,0l.9.9A.994.994,0,0,1,11.051,3.218Zm0,0" transform="translate(222 185.03)" fill="#fff"/>
  </g>
</svg>
