<svg xmlns="http://www.w3.org/2000/svg" width="266" height="266" viewBox="0 0 266 266">
  <g id="lottery" transform="translate(-0.267 -0.267)">
    <g id="Group_938" data-name="Group 938" transform="translate(-0.025 -0.025)">
      <g id="Group_937" data-name="Group 937" transform="translate(0 0)">
        <g id="Group_936" data-name="Group 936">
          <g id="Group_935" data-name="Group 935">
            <g id="Group_934" data-name="Group 934">
              <g id="Group_933" data-name="Group 933">
                <g id="Group_932" data-name="Group 932">
                  <circle id="Ellipse_3297" data-name="Ellipse 3297" cx="133" cy="133" r="133" transform="translate(0.292 0.292)" fill="#528eff"/>
                </g>
              </g>
            </g>
          </g>
        </g>
      </g>
    </g>
    <path id="Path_5643" data-name="Path 5643" d="M319.8,159.638q0-4.177-.254-8.293l-47.682-47.682L266.3,108l-52.72-52.72-10.876,9.462L111.634,228.56l63.7,63.7q5.617.474,11.358.478A133.1,133.1,0,0,0,319.8,159.638Z" transform="translate(-53.577 -26.521)" fill="#2575f4"/>
    <g id="Group_945" data-name="Group 945" transform="translate(31.849 31.849)">
      <g id="Group_944" data-name="Group 944" transform="translate(0 0)">
        <g id="Group_943" data-name="Group 943">
          <g id="Group_942" data-name="Group 942">
            <g id="Group_941" data-name="Group 941">
              <g id="Group_940" data-name="Group 940">
                <g id="Group_939" data-name="Group 939">
                  <circle id="Ellipse_3298" data-name="Ellipse 3298" cx="100.5" cy="100.5" r="100.5" transform="translate(0.417 0.418)" fill="#fff"/>
                </g>
              </g>
            </g>
          </g>
        </g>
      </g>
    </g>
    <g id="Group_952" data-name="Group 952" transform="translate(133.116 31.211)">
      <g id="Group_951" data-name="Group 951">
        <g id="Group_950" data-name="Group 950">
          <g id="Group_949" data-name="Group 949">
            <g id="Group_948" data-name="Group 948">
              <g id="Group_947" data-name="Group 947">
                <g id="Group_946" data-name="Group 946">
                  <path id="Path_5644" data-name="Path 5644" d="M256,60h0V263.811A101.906,101.906,0,1,0,256,60Z" transform="translate(-255.999 -60)" fill="#e9edf5"/>
                </g>
              </g>
            </g>
          </g>
        </g>
      </g>
    </g>
    <g id="Group_969" data-name="Group 969" transform="translate(55.641 55.64)">
      <g id="Group_968" data-name="Group 968">
        <g id="Group_967" data-name="Group 967">
          <g id="Group_966" data-name="Group 966">
            <g id="Group_965" data-name="Group 965">
              <g id="Group_964" data-name="Group 964">
                <g id="Group_953" data-name="Group 953" transform="translate(23.919 0.002)">
                  <path id="Path_5645" data-name="Path 5645" d="M206.548,106.99a77.6,77.6,0,0,0-53.557,21.5l53.557,55.01Z" transform="translate(-152.991 -106.99)" fill="#ffce00"/>
                </g>
                <g id="Group_954" data-name="Group 954" transform="translate(0.008 21.502)">
                  <path id="Path_5646" data-name="Path 5646" d="M130.913,148.341A77.248,77.248,0,0,0,107,203.68H184.47v-.328Z" transform="translate(-107.002 -148.341)" fill="#fa0"/>
                </g>
                <g id="Group_955" data-name="Group 955" transform="translate(0 76.84)">
                  <path id="Path_5647" data-name="Path 5647" d="M106.986,255.412a77.218,77.218,0,0,0,22.1,54.181l55.372-54.388v-.429H106.994c0,.213-.008.424-.008.636Z" transform="translate(-106.986 -254.776)" fill="#ff6c52"/>
                </g>
                <g id="Group_956" data-name="Group 956" transform="translate(22.104 77.27)">
                  <path id="Path_5648" data-name="Path 5648" d="M204.872,333.283V255.6L149.5,309.99A77.622,77.622,0,0,0,204.872,333.283Z" transform="translate(-149.5 -255.602)" fill="#ff432e"/>
                </g>
                <g id="Group_957" data-name="Group 957" transform="translate(77.476 76.512)">
                  <path id="Path_5649" data-name="Path 5649" d="M256,254.473v0Z" transform="translate(-256 -254.145)" fill="#1dd882"/>
                </g>
                <g id="Group_958" data-name="Group 958" transform="translate(77.461)">
                  <path id="Path_5650" data-name="Path 5650" d="M255.985,183.826l55-53.919a77.223,77.223,0,0,0-55-22.922c-.055,0,.055,0,0,0v76.838Z" transform="translate(-255.969 -106.986)" fill="#1dd882"/>
                </g>
                <g id="Group_959" data-name="Group 959" transform="translate(77.476 22.922)">
                  <path id="Path_5651" data-name="Path 5651" d="M311,151.073l-55,53.918h77.468A77.223,77.223,0,0,0,311,151.073Z" transform="translate(-256 -151.073)" fill="#4253ce"/>
                </g>
                <g id="Group_960" data-name="Group 960" transform="translate(77.476 76.84)">
                  <path id="Path_5652" data-name="Path 5652" d="M256,254.776v0Z" transform="translate(-256 -254.776)" fill="#1dd882"/>
                </g>
                <g id="Group_961" data-name="Group 961" transform="translate(77.476 76.84)">
                  <path id="Path_5653" data-name="Path 5653" d="M256,255.205v0Z" transform="translate(-256 -254.776)" fill="#1dd882"/>
                </g>
                <g id="Group_962" data-name="Group 962" transform="translate(77.476 76.84)">
                  <path id="Path_5654" data-name="Path 5654" d="M333.476,255.412c0-.213-.006-.424-.008-.636H256v.059l54.353,55.782A77.236,77.236,0,0,0,333.476,255.412Z" transform="translate(-256 -254.776)" fill="#7584f2"/>
                </g>
                <g id="Group_963" data-name="Group 963" transform="translate(77.461 76.899)">
                  <path id="Path_5655" data-name="Path 5655" d="M255.985,254.89v78.052c.055,0-.055,0,0,0a77.221,77.221,0,0,0,54.353-22.271Z" transform="translate(-255.969 -254.89)" fill="#a3d4ff"/>
                </g>
              </g>
            </g>
          </g>
        </g>
      </g>
    </g>
    <g id="Group_970" data-name="Group 970" transform="translate(106.064 28.755)">
      <path id="Path_5656" data-name="Path 5656" d="M257.744,55.276,231.021,97.344,203.968,55.275Z" transform="translate(-203.968 -55.275)" fill="#555a66"/>
    </g>
    <g id="Group_971" data-name="Group 971" transform="translate(133.117 28.755)">
      <path id="Path_5657" data-name="Path 5657" d="M282.723,55.276H256V97.344Z" transform="translate(-256 -55.275)" fill="#333940"/>
    </g>
    <g id="Group_978" data-name="Group 978" transform="translate(100.66 100.689)">
      <g id="Group_977" data-name="Group 977" transform="translate(0 0)">
        <g id="Group_976" data-name="Group 976" transform="translate(0 0)">
          <g id="Group_975" data-name="Group 975">
            <g id="Group_974" data-name="Group 974">
              <g id="Group_973" data-name="Group 973">
                <g id="Group_972" data-name="Group 972">
                  <circle id="Ellipse_3299" data-name="Ellipse 3299" cx="22.933" cy="22.933" r="22.933" transform="translate(0 32.428) rotate(-45)" fill="#fff"/>
                </g>
              </g>
            </g>
          </g>
        </g>
      </g>
    </g>
    <g id="Group_985" data-name="Group 985" transform="translate(133.116 110.183)">
      <g id="Group_984" data-name="Group 984">
        <g id="Group_983" data-name="Group 983">
          <g id="Group_982" data-name="Group 982">
            <g id="Group_981" data-name="Group 981">
              <g id="Group_980" data-name="Group 980">
                <g id="Group_979" data-name="Group 979">
                  <path id="Path_5658" data-name="Path 5658" d="M256,211.891h0v45.867a22.933,22.933,0,1,0,0-45.867Z" transform="translate(-255.999 -211.891)" fill="#e9edf5"/>
                </g>
              </g>
            </g>
          </g>
        </g>
      </g>
    </g>
  </g>
</svg>
