<svg xmlns="http://www.w3.org/2000/svg" width="24.651" height="25.176" viewBox="0 0 24.651 25.176">
  <g id="love_colored" data-name="love colored" transform="translate(-5.332)">
    <path id="Path_5670" data-name="Path 5670" d="M25.349,0H9.967A4.635,4.635,0,0,0,5.332,4.635V14.723a4.635,4.635,0,0,0,4.635,4.635h2.208a.19.19,0,0,1,.19.19v4.977a.65.65,0,0,0,1.123.445l5.221-5.552a.19.19,0,0,1,.139-.06h6.5a4.635,4.635,0,0,0,4.635-4.635V4.635A4.635,4.635,0,0,0,25.349,0Z" transform="translate(0)" fill="#ec5569"/>
    <path id="Path_5671" data-name="Path 5671" d="M14.314,29.374a.193.193,0,0,0-.184-.2H11.993a4.7,4.7,0,0,1-4.487-4.881V13.669a5.289,5.289,0,0,1,.165-1.316A4.633,4.633,0,0,0,5.332,16.38V26.469A4.635,4.635,0,0,0,9.967,31.1h2.208a.19.19,0,0,1,.19.19V36.27a.65.65,0,0,0,1.123.445l.827-.879V29.374Z" transform="translate(0 -11.746)" fill="#e63950"/>
    <path id="Path_5672" data-name="Path 5672" d="M143.439,105.259h0a3.013,3.013,0,0,0-4.261,0l-.665.665a.406.406,0,0,1-.574,0l-.654-.654a3.013,3.013,0,0,0-4.261,0h0a3.013,3.013,0,0,0,0,4.261l4.916,4.916a.406.406,0,0,0,.574,0l4.926-4.926A3.013,3.013,0,0,0,143.439,105.259Z" transform="translate(-120.573 -99.244)" fill="#ec5569"/>
    <path id="Path_5673" data-name="Path 5673" d="M143.439,105.259h0a3.013,3.013,0,0,0-4.261,0l-.665.665a.406.406,0,0,1-.574,0l-.654-.654a3.013,3.013,0,0,0-4.261,0h0a3.013,3.013,0,0,0,0,4.261l4.916,4.916a.406.406,0,0,0,.574,0l4.926-4.926A3.013,3.013,0,0,0,143.439,105.259Z" transform="translate(-120.573 -99.244)" fill="#fff5f5"/>
    <path id="Path_5674" data-name="Path 5674" d="M134.6,109.751a3.013,3.013,0,0,1,0-4.261h0a3,3,0,0,1,1.343-.777,3.011,3.011,0,0,0-2.919.777h0a3.013,3.013,0,0,0,0,4.261l4.916,4.916a.406.406,0,0,0,.574,0l.5-.5Z" transform="translate(-120.574 -99.464)" fill="#dce6eb"/>
  </g>
</svg>
