<svg xmlns="http://www.w3.org/2000/svg" width="246.119" height="149.001" viewBox="0 0 246.119 149.001">
  <g id="SCRATCH" transform="translate(-34.914 -47)">
    <path id="Path_5638" data-name="Path 5638" d="M255.513,59.092s-285.918-.072-168.8,10.721,152.782-9.946,168.8-2.42S1.586,87.023,86.71,91.9s210.457-12.132,189.181,2.666-244.1,34.911-225.651,19.342,213.661-1.548,213-2.7" transform="translate(-3.283 -6.092)" fill="none" stroke="#fff" stroke-linecap="round" stroke-linejoin="round" stroke-width="12"/>
    <path id="Path_5639" data-name="Path 5639" d="M255.513,59.092s-285.918-.081-168.8,12.148,152.782-11.27,168.8-2.742S1.586,90.742,86.71,96.274,297.167,82.526,275.891,99.3s-244.1,39.56-225.651,21.918,213.661-1.755,213-3.062" transform="translate(-8.219 62.408)" fill="none" stroke="#fff" stroke-linecap="round" stroke-linejoin="round" stroke-width="12"/>
  </g>
</svg>
