<svg xmlns="http://www.w3.org/2000/svg" width="130.207" height="107.414" viewBox="0 0 130.207 107.414">
  <g id="share_illustrate" data-name="share illustrate" transform="translate(0 0)">
    <path id="Path_5391" data-name="Path 5391" d="M116.832,117.079c-6.487-4.929-17.583-17.16-2.971-36.361,18.069-23.744-3.571-33.486-24.313-32.469-16.687.818-35.468-20.161-54.2-16.412-24.866,4.977-8.72,26.39-25.58,37.928C-4.614,79.6,1.559,109.583,20.273,117.079Z" transform="translate(-0.85 -14.531)" fill="#cfe6f4"/>
    <path id="Path_5392" data-name="Path 5392" d="M230.623,106.721c-.1-3.521-3.38-4.887-5.569-2.338a10.987,10.987,0,0,0-2.677,6.365c-.5,6.278,4.991,4.459,7.043,1.1A9.6,9.6,0,0,0,230.623,106.721Z" transform="translate(-102.93 -47.714)" fill="#cfe6f4"/>
    <path id="Path_5393" data-name="Path 5393" d="M121.553,29.829c-3.461-.655-5.5,2.257-3.474,4.941a10.99,10.99,0,0,0,5.646,3.976c6.025,1.832,5.422-3.922,2.578-6.646A9.6,9.6,0,0,0,121.553,29.829Z" transform="translate(-54.291 -13.766)" fill="#cfe6f4"/>
    <path id="Path_5394" data-name="Path 5394" d="M10.057,85.8c1.385-3.239-1.021-5.854-4.077-4.457A10.989,10.989,0,0,0,.882,86c-3.086,5.489,2.663,6.14,5.935,3.948A9.6,9.6,0,0,0,10.057,85.8Z" transform="translate(0 -37.48)" fill="#cfe6f4"/>
    <path id="Path_5395" data-name="Path 5395" d="M129.6,189.362c0,2.157-26.559,3.906-59.321,3.906s-59.322-1.749-59.322-3.906,26.559-3.905,59.322-3.905S129.6,187.206,129.6,189.362Z" transform="translate(-5.072 -85.854)" fill="#cfe6f4"/>
    <path id="Path_5396" data-name="Path 5396" d="M213.854,126.484c-3.632,3.631.419,3.938-2.246,6.681-2.429,2.5-6.014.067-5.775,6.171a3.022,3.022,0,0,1-2.283,2.834,5.194,5.194,0,0,1-5.79-1.472,4.934,4.934,0,0,1-.313-.388,5.292,5.292,0,0,1-.64-5.178,5.84,5.84,0,0,1,3.645-3.625c4.541-1.4,2.02-7.418,5.859-7.682,4.628-.318,4.795-2.016,8.08-4.305C217.874,117.094,218.777,121.564,213.854,126.484Z" transform="translate(-90.922 -55.014)" fill="#5956e9"/>
    <path id="Path_5397" data-name="Path 5397" d="M213.126,129.025c-.1.1-8.523,8.788-14.465,16.2q-.165-.186-.312-.388c5.958-7.414,14.327-16.043,14.429-16.148a.243.243,0,0,1,.349.339Z" transform="translate(-91.822 -59.538)" fill="#3751ab"/>
    <path id="Path_5398" data-name="Path 5398" d="M208.759,148c-5.69,3.35-.747,5.038-4.946,7.593-3.829,2.329-7.507-1.853-9.176,5.822-.365,1.679-1.894,2.6-3.754,2.792a6.68,6.68,0,0,1-6.734-3.7c-.1-.19-.185-.385-.263-.583a6.8,6.8,0,0,1,.871-6.651,7.5,7.5,0,0,1,5.7-3.338c6.1-.285,4.9-8.583,9.767-7.676,5.865,1.095,6.618-.966,11.444-2.756C216.788,137.606,216.471,143.463,208.759,148Z" transform="translate(-84.896 -64.411)" fill="#5956e9"/>
    <path id="Path_5399" data-name="Path 5399" d="M207.8,149.569c-.16.1-13.439,8.194-23.222,15.5-.1-.189-.185-.385-.264-.583,9.8-7.31,23-15.356,23.161-15.454a.312.312,0,1,1,.324.534Z" transform="translate(-85.325 -68.972)" fill="#5956e9"/>
    <path id="Path_5400" data-name="Path 5400" d="M23.029,48.933c1.952,4.75-1.9,3.473-.5,7.03,1.279,3.242,5.524,2.379,2.951,7.92a3.02,3.02,0,0,0,1.015,3.494,5.2,5.2,0,0,0,5.91.873q.224-.108.438-.238a5.292,5.292,0,0,0,2.586-4.531,5.838,5.838,0,0,0-1.966-4.75c-3.65-3.045.994-7.624-2.446-9.346-4.149-2.078-3.648-3.708-5.8-7.087C22.938,38.717,20.383,42.5,23.029,48.933Z" transform="translate(-10.14 -18.94)" fill="#5956e9"/>
    <path id="Path_5401" data-name="Path 5401" d="M28.2,53.317c.053.136,4.479,11.393,7.106,20.52q.224-.108.438-.238c-2.641-9.137-7.038-20.325-7.092-20.461a.243.243,0,0,0-.452.178Z" transform="translate(-13.046 -24.529)" fill="#3751ab"/>
    <path id="Path_5402" data-name="Path 5402" d="M10.614,70.237c4.118,5.162-1.1,4.972,1.907,8.859,2.744,3.543,7.674.951,6.49,8.716-.259,1.7.84,3.1,2.509,3.95a6.682,6.682,0,0,0,7.61-1.047q.237-.214.455-.451a6.8,6.8,0,0,0,1.563-6.523,7.5,7.5,0,0,0-4.134-5.157c-5.6-2.447-1.513-9.769-6.379-10.659-5.868-1.074-5.836-3.267-9.7-6.664C6.83,57.659,5.033,63.242,10.614,70.237Z" transform="translate(-3.286 -27.838)" fill="#5956e9"/>
    <path id="Path_5403" data-name="Path 5403" d="M18,74.229c.115.148,9.624,12.455,16.149,22.777.158-.142.31-.293.455-.451-6.545-10.33-15.995-22.561-16.11-22.71a.312.312,0,1,0-.494.383Z" transform="translate(-8.3 -34.13)" fill="#5956e9"/>
    <path id="Path_5404" data-name="Path 5404" d="M63.18,54.053c1.659-1.136,5.813,1.666,7.986,5.068l-1.927-5.4a11.825,11.825,0,0,0-3.827-2.13c-2.968-1.052-5.942-2.7-4.28-3.837,1.557-1.067,5.314,1.338,7.566,4.451l-2.475-6.933a7.788,7.788,0,0,0-2.163-1.139c-1.87-.663-3.745-1.7-2.7-2.419.909-.622,3.006.631,4.439,2.378L65,41.847a11.327,11.327,0,0,0-1.711-2.437c-1.905-1.971-3.346-4.189-1.876-4.51s3.878,3.541,4.257,7.031l.413,1.156c-.321-2.538.592-5.612,1.865-5.721s.472,1.882-.556,3.58a7.082,7.082,0,0,0-1.056,2.848l1.95,5.462c-.5-4.021.949-8.871,2.963-9.043s.748,2.987-.883,5.68a11.273,11.273,0,0,0-1.674,4.5l2.338,6.549c-.415-3.974,1.007-8.8,2.989-8.813,1.528-.012,1.06,2.146-.765,5.193a12.949,12.949,0,0,0-1.764,4.909l1.1,3.085a1.013,1.013,0,0,1-.567.2l-.438-1.227a11.321,11.321,0,0,0-4.124-2.4C64.493,56.839,61.518,55.192,63.18,54.053Z" transform="translate(-28.078 -16.147)" fill="#5956e9"/>
    <path id="Path_5405" data-name="Path 5405" d="M23.257,147.513c-1.7,1.071-.782,6,1.476,9.342l-4.188-3.915a11.821,11.821,0,0,1-.433-4.358c.215-3.141-.115-6.525-1.82-5.453-1.6,1.005-.885,5.408,1.077,8.712l-5.378-5.027a7.792,7.792,0,0,1-.186-2.437c.135-1.98-.072-4.113-1.147-3.437-.933.587-.616,3.01.417,5.018l-1.743-1.629a11.324,11.324,0,0,1-1.556-2.539c-1.052-2.532-2.514-4.735-3.393-3.515s1.708,4.966,4.76,6.7l.9.838c-2.2-1.3-5.385-1.688-5.991-.563s1.54,1.181,3.506.913a7.078,7.078,0,0,1,3.033.163l4.237,3.96c-3.493-2.054-8.517-2.655-9.476-.875s2.444,1.874,5.563,1.448a11.273,11.273,0,0,1,4.8.253l5.08,4.749c-3.482-1.96-8.472-2.573-9.275-.76-.619,1.4,1.548,1.826,5.069,1.362a12.963,12.963,0,0,1,5.206.332l2.393,2.237a1.012,1.012,0,0,0,.411-.44l-.952-.89a11.321,11.321,0,0,1-.564-4.739C25.292,149.824,24.962,146.44,23.257,147.513Z" transform="translate(-2.754 -63.852)" fill="#5956e9"/>
    <path id="Path_5406" data-name="Path 5406" d="M119.8,73.588v62.739H28.974V73.588Z" transform="translate(-13.413 -34.066)" fill="#f7941d"/>
    <path id="Path_5407" data-name="Path 5407" d="M119.8,73.593v4.022L74.387,117.863,28.974,77.615V73.593l45.41,40.386Z" transform="translate(-13.413 -34.068)" fill="#f36d21"/>
    <path id="Path_5408" data-name="Path 5408" d="M65.637,132.148,31.6,162.419H28.974v-1.6L63.68,129.95Z" transform="translate(-13.413 -60.158)" fill="#f36d21"/>
    <path id="Path_5409" data-name="Path 5409" d="M166.286,161.032v1.387h-2.868l-34.032-30.27,1.957-2.2Z" transform="translate(-59.896 -60.158)" fill="#f36d21"/>
    <path id="Path_5410" data-name="Path 5410" d="M28.974,73.588l45.412,40.389L119.8,73.588Z" transform="translate(-13.413 -34.066)" fill="#f0b93a"/>
    <path id="Path_5411" data-name="Path 5411" d="M149.5,63.067l1.159,2.48-2.45.038-.945-2.257Z" transform="translate(-68.174 -29.196)" fill="#f49477"/>
    <path id="Path_5412" data-name="Path 5412" d="M150.066,66.838s.5-.676.9-.647,3.482,2.48,4.539,2.682.958,1.278.516,1.278c-1.273,0-8.3.012-8.3.012a13.5,13.5,0,0,1,.057-3.262C148.051,66.151,149.24,67.015,150.066,66.838Z" transform="translate(-68.35 -30.641)" fill="#5956e9"/>
    <path id="Path_5413" data-name="Path 5413" d="M155.162,69.6a.148.148,0,0,1-.171-.215,2.273,2.273,0,0,1,.77-.8,1.02,1.02,0,0,1,1.047.049.148.148,0,0,1-.176.237.729.729,0,0,0-.737-.022,2.018,2.018,0,0,0-.647.685A.147.147,0,0,1,155.162,69.6Z" transform="translate(-71.741 -31.693)" fill="#fff"/>
    <path id="Path_5414" data-name="Path 5414" d="M154.342,68.823a.148.148,0,0,1-.171-.215,2.291,2.291,0,0,1,.771-.8,1.019,1.019,0,0,1,1.047.049.148.148,0,1,1-.177.238.728.728,0,0,0-.737-.022,2.008,2.008,0,0,0-.646.685A.148.148,0,0,1,154.342,68.823Z" transform="translate(-71.361 -31.333)" fill="#fff"/>
    <path id="Path_5415" data-name="Path 5415" d="M156.274,70.229a.148.148,0,0,1-.171-.215,2.274,2.274,0,0,1,.771-.8,1.018,1.018,0,0,1,1.047.049.148.148,0,1,1-.176.237.729.729,0,0,0-.737-.022,2.009,2.009,0,0,0-.647.685A.147.147,0,0,1,156.274,70.229Z" transform="translate(-72.256 -31.984)" fill="#fff"/>
    <path id="Path_5416" data-name="Path 5416" d="M135.55,54.581l-1.085.354-.6.036-1.037.061c-1.37-1.084-5.067-4.345-5.786-6.268,0,0-4.756,11.059-11.331,11.059-.427,0,.7-5.5,1.772-6.647,0,0,6.061-11.3,9.99-10.1C129.229,43.617,131.009,46.178,135.55,54.581Z" transform="translate(-53.522 -19.902)" fill="#343054"/>
    <path id="Path_5417" data-name="Path 5417" d="M136.386,58.572l-.6.036c-4.033-3.054-5.9-5.64-6.762-7.3a.126.126,0,0,0-.111-.075.066.066,0,0,0-.061.049,25.27,25.27,0,0,1-5.854,8.764,11.573,11.573,0,0,1-3.08,2.18l-.074-.18-.074-.18a11.452,11.452,0,0,0,2.982-2.122,24.9,24.9,0,0,0,5.741-8.614.452.452,0,0,1,.4-.286.513.513,0,0,1,.471.285C130.233,52.8,132.154,55.441,136.386,58.572Z" transform="translate(-55.443 -23.538)" fill="#1e1d33"/>
    <path id="Path_5418" data-name="Path 5418" d="M145.635,63.3a3.509,3.509,0,0,0,.753,1,11.378,11.378,0,0,0,3.452-.675l-.507-1.181A17.4,17.4,0,0,1,145.635,63.3Z" transform="translate(-67.419 -28.905)" fill="#4c4685"/>
    <path id="Path_5419" data-name="Path 5419" d="M136.126,28.972a32.233,32.233,0,0,1-8.189,2.3h0c-.029,0-.558.044-.761.036a5.9,5.9,0,0,1-2.254-.546,10.686,10.686,0,0,1-2.32-1.84c-1.094-1.056-2.248-2.322-3.046-3.227-.621-.7-1.027-1.188-1.027-1.188a6.33,6.33,0,0,1,2.833-1.964,17.017,17.017,0,0,0,5.571,5.5q.274.15.558.277c.765-.124,2.834-.218,3.73-.282a36.022,36.022,0,0,0,4.416-.594Z" transform="translate(-54.869 -10.436)" fill="#5956e9"/>
    <path id="Path_5420" data-name="Path 5420" d="M150.224,29.107a3.473,3.473,0,0,1,1.085-1.493c.625-.332,2.406-1.5,2.786-1.15s.3,2.027-1.295,3.429a3.19,3.19,0,0,1-2.041.855Z" transform="translate(-69.543 -12.221)" fill="#f49477"/>
    <path id="Path_5421" data-name="Path 5421" d="M153.49,28.109l-2.628,2.455a.383.383,0,0,1-.4.061l-1.611-.779a.182.182,0,0,1-.1-.1l0-.013-.079-.269.427-.162,4.135-1.571.224-.085.084.285.006.019v.007A.163.163,0,0,1,153.49,28.109Z" transform="translate(-68.825 -12.799)" fill="#1e1d33"/>
    <path id="Path_5422" data-name="Path 5422" d="M153.6,27.2l-4.135,1.571,2.338-2.185a.383.383,0,0,1,.4-.061Z" transform="translate(-69.192 -12.263)" fill="#252334"/>
    <path id="Path_5423" data-name="Path 5423" d="M150.378,29.581l-1.612-.779a.156.156,0,0,1-.042-.273l2.628-2.456a.384.384,0,0,1,.4-.06l1.612.779a.156.156,0,0,1,.042.273l-2.629,2.456A.383.383,0,0,1,150.378,29.581Z" transform="translate(-68.82 -12.028)" fill="#343054"/>
    <path id="Path_5424" data-name="Path 5424" d="M151.2,29.414a.341.341,0,0,1-.146-.031l-1.249-.6a.156.156,0,0,1-.041-.273l2.044-1.91a.378.378,0,0,1,.252-.091.336.336,0,0,1,.146.031l1.248.6a.156.156,0,0,1,.041.273l-2.044,1.91A.376.376,0,0,1,151.2,29.414Z" transform="translate(-69.3 -12.27)" fill="#4e4e8a"/>
    <path id="Path_5425" data-name="Path 5425" d="M157.755,28.221h0v-.007Z" transform="translate(-73.029 -13.061)" fill="#252334"/>
    <path id="Path_5426" data-name="Path 5426" d="M151.617,27.559s.374.058.412.38-.31.194-.534.123a.545.545,0,0,0-.457.037C150.941,28.214,150.958,27.463,151.617,27.559Z" transform="translate(-69.9 -12.754)" fill="#f49477"/>
    <path id="Path_5427" data-name="Path 5427" d="M155.273,29.433a14.719,14.719,0,0,1,1.038-1.493c.3-.351.453.158.248.514S155.949,29.532,155.273,29.433Z" transform="translate(-71.881 -12.879)" fill="#f49477"/>
    <path id="Path_5428" data-name="Path 5428" d="M103.116,43.6l-1.3-8.394-.077-.5.009-.375.29-11.891,3.3-1.115.177-.06.741-.251.588-.2,3.483.479.567.078.2.027,2.492.343c.023,7.883-.734,9.586.723,16C115.039,40.16,112.348,48.726,103.116,43.6Z" transform="translate(-47.097 -9.636)" fill="#5956e9"/>
    <path id="Path_5429" data-name="Path 5429" d="M107.615,53.246h0a11.608,11.608,0,0,0,5.648-3.911,14.868,14.868,0,0,0,1.861-2.852.131.131,0,0,0-.237-.109,14.551,14.551,0,0,1-1.83,2.8,11.344,11.344,0,0,1-5.513,3.82.13.13,0,0,0,.07.251Z" transform="translate(-49.742 -21.433)" fill="#5956e9"/>
    <path id="Path_5430" data-name="Path 5430" d="M112.658,57.045a11.036,11.036,0,0,0,4.258-2.621.13.13,0,1,0-.186-.183,10.364,10.364,0,0,1-4.689,2.674.13.13,0,0,0,.043.257A5.732,5.732,0,0,0,112.658,57.045Z" transform="translate(-51.817 -25.092)" fill="#5956e9"/>
    <path id="Path_5431" data-name="Path 5431" d="M109.671,25.816a11.029,11.029,0,0,0,4.251-2.632.13.13,0,1,0-.186-.182,10.371,10.371,0,0,1-4.683,2.686.13.13,0,0,0,.043.257A5.723,5.723,0,0,0,109.671,25.816Z" transform="translate(-50.434 -10.63)" fill="#5956e9"/>
    <path id="Path_5432" data-name="Path 5432" d="M145.533,103.682l.912,2.03-1.87.8-1.088-2.1Z" transform="translate(-66.425 -47.998)" fill="#f49477"/>
    <path id="Path_5433" data-name="Path 5433" d="M146.455,106.549s.192-.821.569-.954,4.183.883,5.233.647,1.171.559,1.153,1-7.785,3.227-7.785,3.227a12.851,12.851,0,0,1-1.238-2.951C144.334,106.725,145.769,107.042,146.455,106.549Z" transform="translate(-66.84 -48.878)" fill="#5956e9"/>
    <path id="Path_5434" data-name="Path 5434" d="M152.207,107.689a.148.148,0,0,1-.243-.129,2.271,2.271,0,0,1,.386-1.043,1.021,1.021,0,0,1,.979-.374.148.148,0,1,1-.067.288.727.727,0,0,0-.685.274,2.014,2.014,0,0,0-.319.886A.147.147,0,0,1,152.207,107.689Z" transform="translate(-70.349 -49.13)" fill="#fff"/>
    <path id="Path_5435" data-name="Path 5435" d="M151.142,107.306a.148.148,0,0,1-.243-.129,2.277,2.277,0,0,1,.386-1.044,1.019,1.019,0,0,1,.979-.373.148.148,0,1,1-.067.288.728.728,0,0,0-.685.274,2,2,0,0,0-.318.886A.148.148,0,0,1,151.142,107.306Z" transform="translate(-69.856 -48.952)" fill="#fff"/>
    <path id="Path_5436" data-name="Path 5436" d="M153.475,107.821a.146.146,0,0,1-.111.035.149.149,0,0,1-.132-.163,2.288,2.288,0,0,1,.386-1.044,1.019,1.019,0,0,1,.98-.373.148.148,0,1,1-.067.288.728.728,0,0,0-.685.274,2.011,2.011,0,0,0-.319.886A.147.147,0,0,1,153.475,107.821Z" transform="translate(-70.936 -49.191)" fill="#fff"/>
    <path id="Path_5437" data-name="Path 5437" d="M127.386,85.142a5.338,5.338,0,0,1-1.445.846c-.118.053-.24.1-.359.155-.212.087-.422.166-.62.234,0,0-4.437-8.177-6.139-14.107,0,0-15.018-1.854-15.537-7.114a2.837,2.837,0,0,1,0-.541,3.845,3.845,0,0,1,.542-1.591c.343-.59,5.482-.015,8.259.764,0,0,7.528,2.933,10.312,5.954C123.8,71.272,127.386,85.142,127.386,85.142Z" transform="translate(-47.807 -29.063)" fill="#343054"/>
    <path id="Path_5438" data-name="Path 5438" d="M125.941,87.569c-.118.053-.24.105-.359.155-2.244-3.713-5.359-12.389-6.054-14.471a.411.411,0,0,0-.315-.274c-7.3-1.372-11.5-3.285-13.742-4.649a14.577,14.577,0,0,1-2.185-1.592,2.837,2.837,0,0,1,0-.541,13.3,13.3,0,0,0,2.434,1.827c2.213,1.338,6.364,3.218,13.568,4.573a.8.8,0,0,1,.613.533C120.592,75.213,123.72,83.928,125.941,87.569Z" transform="translate(-47.807 -30.644)" fill="#1e1d33"/>
    <path id="Path_5439" data-name="Path 5439" d="M142.167,103.922l.708,1.133a6.133,6.133,0,0,0,2.958-1.511l-.441-1.012A31.909,31.909,0,0,1,142.167,103.922Z" transform="translate(-65.813 -47.465)" fill="#4c4685"/>
    <path id="Path_5440" data-name="Path 5440" d="M92.845,68.8s1.022,1.386.938,2.1-1.01,2.068-1.749,2.133.85-1.736.475-1.678c-.454.07-3.519,2.585-4.166,2.585s.761-1.169,1.309-1.464a10.223,10.223,0,0,0-1.788.986c-.337.337-.583-.386,1.1-1.413,0,0-1.548.878-1.653.893-.344.046.638-1.106,1.484-1.522,0,0-1.241.6-1.367.607-.174,0,.2-.4,1.12-.913a11,11,0,0,0,2.186-2.567Z" transform="translate(-40.388 -31.733)" fill="#f49477"/>
    <path id="Path_5441" data-name="Path 5441" d="M98.342,23.84a44.573,44.573,0,0,0-4.223,13.518L93.75,47.851s.354.748,2.106.251l1.7-10.492,1.3-4.8S99.441,26.9,98.342,23.84Z" transform="translate(-43.4 -11.036)" fill="#5956e9"/>
    <path id="Path_5442" data-name="Path 5442" d="M115.463,6.692a3.8,3.8,0,1,1-3.081-4.4A3.8,3.8,0,0,1,115.463,6.692Z" transform="translate(-49.959 -1.032)" fill="#343054"/>
    <path id="Path_5443" data-name="Path 5443" d="M115.583,4.978a1.258,1.258,0,0,0,1.154-1.159c.035-.9-1.093-.511-.881-1.179s.522-1.255-.333-1.582c-.748-.287-.854.242-1.735-.708-1.04-1.122-2.335.821-3.418.695a1.824,1.824,0,0,0-2.237,1.361,1.357,1.357,0,0,0,.238,1.3Z" transform="translate(-50.018 0)" fill="#343054"/>
    <path id="Path_5444" data-name="Path 5444" d="M119.952,12.031s.733-.686,1.058.046-.64,2.552-1.635,1.89Z" transform="translate(-55.262 -5.434)" fill="#f36156"/>
    <path id="Path_5445" data-name="Path 5445" d="M119.949,14.047a.092.092,0,0,0,.1-.051,1.433,1.433,0,0,1,.939-.7.093.093,0,0,0-.034-.182,1.6,1.6,0,0,0-1.072.8.093.093,0,0,0,.044.124Z" transform="translate(-55.492 -6.07)" fill="#f04147"/>
    <path id="Path_5446" data-name="Path 5446" d="M120.98,14.086l.052-.005a.093.093,0,0,0,.049-.121.848.848,0,0,0-.293-.337.093.093,0,0,0-.1.153.671.671,0,0,1,.227.255A.093.093,0,0,0,120.98,14.086Z" transform="translate(-55.85 -6.299)" fill="#f04147"/>
    <path id="Path_5447" data-name="Path 5447" d="M110.964,17.6l-.339,1.92a3.125,3.125,0,0,0,1.4,1.189c.762.2,1.394-.631,1.394-.631l.327-1.846Z" transform="translate(-51.212 -8.145)" fill="#f49477"/>
    <path id="Path_5448" data-name="Path 5448" d="M111.127,17.6l-.15.852c.417.668,1.315.976,2.716,1.015l.218-1.236Z" transform="translate(-51.375 -8.145)" fill="#f36156"/>
    <path id="Path_5449" data-name="Path 5449" d="M108.959,6.138a18.947,18.947,0,0,0-.18,2.469c0,.192.012.375.029.539.154,1.486.736,4.091,3.743,3.58,1.329-.225,2.154-1.514,2.662-2.884a13.929,13.929,0,0,0,.653-2.593,2.035,2.035,0,0,0-.715-1.885,5.42,5.42,0,0,0-4.566-.96A2.028,2.028,0,0,0,108.959,6.138Z" transform="translate(-50.357 -1.976)" fill="#f49477"/>
    <path id="Path_5450" data-name="Path 5450" d="M117.715,11.994c-.037.2.04.39.17.413s.265-.124.3-.329-.04-.39-.17-.413S117.751,11.789,117.715,11.994Z" transform="translate(-54.49 -5.399)" fill="#343054"/>
    <path id="Path_5451" data-name="Path 5451" d="M112.566,11.085c-.036.2.04.389.171.413s.265-.124.3-.329-.04-.39-.17-.413S112.6,10.88,112.566,11.085Z" transform="translate(-52.106 -4.978)" fill="#343054"/>
    <path id="Path_5452" data-name="Path 5452" d="M118.475,10.137a2.684,2.684,0,0,0-1.728-.369v.362a3.238,3.238,0,0,1,1.6.4C118.427,10.38,118.509,10.314,118.475,10.137Z" transform="translate(-54.046 -4.503)" fill="#343054"/>
    <path id="Path_5453" data-name="Path 5453" d="M111.555,8.967a2.684,2.684,0,0,1,1.749.246l-.126.34a3.237,3.237,0,0,0-1.641-.17C111.516,9.211,111.462,9.122,111.555,8.967Z" transform="translate(-51.618 -4.128)" fill="#343054"/>
    <path id="Path_5454" data-name="Path 5454" d="M114.491,13.058a.983.983,0,0,1-.317-.128.093.093,0,0,1,.1-.157c.077.048.265.135.36.1a.1.1,0,0,0,.06-.077,14.062,14.062,0,0,0,.192-1.407.093.093,0,1,1,.184.017,13.84,13.84,0,0,1-.2,1.44.283.283,0,0,1-.172.2A.392.392,0,0,1,114.491,13.058Z" transform="translate(-52.834 -5.233)" fill="#f36156"/>
    <path id="Path_5455" data-name="Path 5455" d="M114.77,15.634a1.193,1.193,0,0,1-1.345.861,1.149,1.149,0,0,1-.964-1.269Z" transform="translate(-52.062 -7.048)" fill="#fff"/>
    <path id="Path_5456" data-name="Path 5456" d="M113.725,18.163a.966.966,0,0,1-.423-.2.093.093,0,1,1,.122-.139.783.783,0,0,0,.333.16.752.752,0,0,0,.349-.039.093.093,0,1,1,.069.172A.925.925,0,0,1,113.725,18.163Z" transform="translate(-52.437 -8.239)" fill="#f36156"/>
    <path id="Path_5457" data-name="Path 5457" d="M115.039,9.2a3.88,3.88,0,0,0,.284-1.095c-.011-.456-.33-.78-.133-1.182a.909.909,0,0,0-.489-1.075,5.335,5.335,0,0,1-1.814-.6c-.665-.473-1.97-.45-2.258-.021-.349.52-.019.633-.806,1.123-.314.2-.1.883-.131,1.3a2.831,2.831,0,0,1-.069.487l-.021.1-.813-.144c.023-.652.1-1.363.172-1.956A2.029,2.029,0,0,1,110.587,4.4a5.418,5.418,0,0,1,4.567.959,2.035,2.035,0,0,1,.715,1.885,14.813,14.813,0,0,1-.458,2.015Z" transform="translate(-50.362 -1.976)" fill="#343054"/>
    <path id="Path_5458" data-name="Path 5458" d="M108.263,10.87a3.491,3.491,0,0,0,.062-.643.775.775,0,0,0-.309-.74.508.508,0,0,0-.7.05c-.556.576-.425,2.7.738,2.416Z" transform="translate(-49.535 -4.339)" fill="#f49477"/>
    <path id="Path_5459" data-name="Path 5459" d="M108.319,11.847a.093.093,0,0,1-.059-.1,1.43,1.43,0,0,0-.438-1.087.093.093,0,0,1,.125-.138,1.6,1.6,0,0,1,.5,1.243.093.093,0,0,1-.1.083Z" transform="translate(-49.9 -4.862)" fill="#f36156"/>
    <path id="Path_5460" data-name="Path 5460" d="M107.832,11.792l-.041-.032a.093.093,0,0,1,.021-.129.849.849,0,0,1,.426-.135.093.093,0,0,1,.009.185.668.668,0,0,0-.326.1A.092.092,0,0,1,107.832,11.792Z" transform="translate(-49.892 -5.322)" fill="#f36156"/>
    <path id="Path_5461" data-name="Path 5461" d="M178.061,88.394a32.976,32.976,0,0,1-2.724,4.253A11.152,11.152,0,0,1,174,94.108c-.724.641-1.43.975-2.005.691-2.133-1.054-6.889-9.439-6.889-9.439L166.278,84s2.117,2.395,3.665,3.828c1.428,1.322,2.525,2.31,2.525,2.31.2-.295.408-.618.627-.959.233-.363.474-.747.72-1.142,1.783-2.867,3.929-6,3.929-6Z" transform="translate(-76.433 -37.975)" fill="#f49477"/>
    <path id="Path_5462" data-name="Path 5462" d="M163.228,83.337a2.26,2.26,0,0,0,.3-1.5c-.186-.71-.368-2.315-1.143-2.271-.284.016.13.686-.06,1.307a10.436,10.436,0,0,1-1.387-.811c-.489-.361-1.5-.948-1.972-1.216a.146.146,0,0,0-.2.194,3.292,3.292,0,0,0,1.1.938s-1.7-.95-1.98-.741,1.859,1.358,1.859,1.358-1.73-.7-1.872-.443c-.086.156,1.611,1.153,1.611,1.153s-1.686-.52-1.373-.126c.091.115,3.293,1.564,3.961,3.247A3.055,3.055,0,0,0,163.228,83.337Z" transform="translate(-73.074 -36.49)" fill="#f49477"/>
    <path id="Path_5463" data-name="Path 5463" d="M182.221,97.822a11.156,11.156,0,0,1-1.336,1.461l-.907-4.93c.233-.363.475-.747.721-1.142Z" transform="translate(-83.318 -43.15)" fill="#f36156"/>
    <path id="Path_5464" data-name="Path 5464" d="M184.871,81.621l-4.509,6.5,1.435,5.794,3.538-5.644A14.5,14.5,0,0,0,184.871,81.621Z" transform="translate(-83.495 -37.785)" fill="#5956e9"/>
    <path id="Path_5465" data-name="Path 5465" d="M193.065,185.092v2.053l1.917-.031.125-2.175Z" transform="translate(-89.376 -85.614)" fill="#f49477"/>
    <path id="Path_5466" data-name="Path 5466" d="M196.311,129.305c-.013.244-.079,1.416-.18,3.049-.27,4.488-.775,12.462-1.071,14.254a97.926,97.926,0,0,0-.069,11.021,1.888,1.888,0,0,1-.542,1.381,2,2,0,0,1-.445.34,1.98,1.98,0,0,1-.963.249h-1.461a1.93,1.93,0,0,1-1.95-1.971c.082-2.668.183-7.533-.008-11.293-.183-3.578.082-9.908.286-13.855h0c.082-1.576.154-2.769.183-3.256Z" transform="translate(-87.753 -59.822)" fill="#343054"/>
    <path id="Path_5467" data-name="Path 5467" d="M190.389,129.225l6.219.081c-.013.244-.08,1.415-.18,3.048a26.737,26.737,0,0,1-6.221.127C190.288,130.9,190.36,129.712,190.389,129.225Z" transform="translate(-88.052 -59.822)" fill="#1e1d33"/>
    <path id="Path_5468" data-name="Path 5468" d="M198.188,151.986c.055,2.018.111,4.1.074,5.786-.01.472-.027.875-.049,1.221a1.887,1.887,0,0,1-.446.34c.035-.4.063-.915.078-1.571.037-1.672-.02-3.753-.075-5.766a52.144,52.144,0,0,1,.008-5.773c.3-2.164.966-13.9,1.141-17.032l.418.019c-.175,3.131-.844,14.889-1.144,17.068A52.518,52.518,0,0,0,198.188,151.986Z" transform="translate(-91.519 -59.807)" fill="#1e1d33"/>
    <path id="Path_5469" data-name="Path 5469" d="M189.558,188.445s-.4-.547-.722-.531-2.874,1.913-3.736,2.056-.709.765-.559,1.085,6.849.028,6.849.028a10.01,10.01,0,0,0,.022-2.548C191.207,187.935,190.226,188.6,189.558,188.445Z" transform="translate(-85.376 -86.991)" fill="#5956e9"/>
    <path id="Path_5470" data-name="Path 5470" d="M190.16,190.584a.122.122,0,0,0,.094-.008.116.116,0,0,0,.049-.16,1.828,1.828,0,0,0-.612-.653.843.843,0,0,0-.852.021.116.116,0,0,0-.028.164.121.121,0,0,0,.168.028.6.6,0,0,1,.6,0,1.611,1.611,0,0,1,.513.557A.118.118,0,0,0,190.16,190.584Z" transform="translate(-87.396 -87.799)" fill="#fff"/>
    <path id="Path_5471" data-name="Path 5471" d="M190.842,189.981a.122.122,0,0,0,.095-.008.117.117,0,0,0,.049-.16,1.836,1.836,0,0,0-.612-.653.843.843,0,0,0-.851.02.116.116,0,0,0-.028.164.122.122,0,0,0,.168.028.6.6,0,0,1,.6,0,1.6,1.6,0,0,1,.513.556A.121.121,0,0,0,190.842,189.981Z" transform="translate(-87.712 -87.52)" fill="#fff"/>
    <path id="Path_5472" data-name="Path 5472" d="M189.251,191.066a.122.122,0,0,0,.095-.008.117.117,0,0,0,.048-.16,1.832,1.832,0,0,0-.612-.653.841.841,0,0,0-.851.021.115.115,0,0,0-.029.164.122.122,0,0,0,.168.028.6.6,0,0,1,.6,0,1.6,1.6,0,0,1,.513.556A.116.116,0,0,0,189.251,191.066Z" transform="translate(-86.975 -88.022)" fill="#fff"/>
    <path id="Path_5473" data-name="Path 5473" d="M210.448,185.092l.206,2.049,1.71-.027.125-2.175Z" transform="translate(-97.423 -85.614)" fill="#f49477"/>
    <path id="Path_5474" data-name="Path 5474" d="M211.232,146.418c-.191,3.759-.09,8.625-.008,11.293a1.932,1.932,0,0,1-1.95,1.971h-1.461a1.992,1.992,0,0,1-.9-.213,1.938,1.938,0,0,1-1.053-1.758,97.906,97.906,0,0,0-.069-11.021c-.3-1.823-.82-10.041-1.087-14.482-.088-1.483-.148-2.543-.164-2.8l6.229.08c.018.316.047.8.082,1.421C211.054,134.456,211.443,142.278,211.232,146.418Z" transform="translate(-94.689 -59.905)" fill="#343054"/>
    <path id="Path_5475" data-name="Path 5475" d="M210.853,130.905a61.343,61.343,0,0,1-6.147,1.3c-.088-1.482-.148-2.542-.164-2.8l6.229.081C210.79,129.8,210.819,130.288,210.853,130.905Z" transform="translate(-94.689 -59.905)" fill="#1e1d33"/>
    <path id="Path_5476" data-name="Path 5476" d="M207.536,157.761c.014.676.044,1.2.079,1.607a1.917,1.917,0,0,1-.443-.309c-.025-.361-.044-.786-.055-1.289-.036-1.682.02-3.768.075-5.786a52.661,52.661,0,0,0,0-5.707c-.3-2.179-.97-13.944-1.145-17.071l.418-.018c.175,3.128.842,14.869,1.141,17.035A52.3,52.3,0,0,1,207.61,152C207.556,154.008,207.5,156.089,207.536,157.761Z" transform="translate(-95.384 -59.805)" fill="#1e1d33"/>
    <path id="Path_5477" data-name="Path 5477" d="M211.214,188.259a8.137,8.137,0,0,1,1.113-.223c.242.005,1.857,1.774,2.4,1.879.986.189.988,1.7.387,1.773a17.4,17.4,0,0,1-4.706-.5,13.486,13.486,0,0,1-.155-2.544C210.373,188.034,210.729,188.438,211.214,188.259Z" transform="translate(-97.319 -87.048)" fill="#5956e9"/>
    <path id="Path_5478" data-name="Path 5478" d="M214.618,190.8a.122.122,0,0,1-.093-.017.117.117,0,0,1-.033-.164,1.846,1.846,0,0,1,.673-.592.842.842,0,0,1,.845.1.116.116,0,0,1,.012.166.122.122,0,0,1-.17.012.6.6,0,0,0-.6-.061,1.624,1.624,0,0,0-.565.506A.116.116,0,0,1,214.618,190.8Z" transform="translate(-99.285 -87.939)" fill="#fff"/>
    <path id="Path_5479" data-name="Path 5479" d="M214,190.139a.12.12,0,0,1-.093-.017.116.116,0,0,1-.033-.163,1.827,1.827,0,0,1,.672-.592.84.84,0,0,1,.845.1.116.116,0,0,1,.012.166.121.121,0,0,1-.17.012.6.6,0,0,0-.6-.061,1.609,1.609,0,0,0-.564.506A.119.119,0,0,1,214,190.139Z" transform="translate(-99.001 -87.631)" fill="#fff"/>
    <path id="Path_5480" data-name="Path 5480" d="M215.487,191.369a.123.123,0,0,1-.093-.018.116.116,0,0,1-.033-.163,1.843,1.843,0,0,1,.672-.592.841.841,0,0,1,.846.1.117.117,0,0,1,.012.166.122.122,0,0,1-.17.012.6.6,0,0,0-.6-.06,1.6,1.6,0,0,0-.564.506A.124.124,0,0,1,215.487,191.369Z" transform="translate(-99.688 -88.2)" fill="#fff"/>
    <path id="Path_5481" data-name="Path 5481" d="M204.226,104.546a34.61,34.61,0,0,1-16.859,0c-.03-2.054-.059-10.271.1-17.015q0-.2.01-.4c0-.065,0-.131,0-.194v-.011c0-.084,0-.167.007-.25.12-4.447.33-8.079.688-8.564h0c.837-1.128,5.047-2.928,6.212-3.733.1.153.67,1,1.421,1.066.824.071,1.557-.879,1.557-.879v-.18c1.17.8,4.983,2.47,5.821,3.594C204.106,79.218,204.265,101.046,204.226,104.546Z" transform="translate(-86.727 -34.434)" fill="#5956e9"/>
    <path id="Path_5482" data-name="Path 5482" d="M189.293,92.8a20.523,20.523,0,0,0-1.5,2.76c-.043.092-.079.169-.106.228l-.057.124-.046.054c0-.133.006-.265.01-.4,0-.065,0-.131,0-.194v-.011c.064-.137.141-.3.227-.473a16.556,16.556,0,0,1,1.263-2.244.133.133,0,0,1,.183-.027A.126.126,0,0,1,189.293,92.8Z" transform="translate(-86.836 -42.864)" fill="#5956e9"/>
    <path id="Path_5483" data-name="Path 5483" d="M204.959,80.649h0a9.153,9.153,0,0,1-5.014-1.733,8.777,8.777,0,0,1-1.771-1.636.126.126,0,0,1,.027-.178.132.132,0,0,1,.182.026,9.253,9.253,0,0,0,6.584,3.266.128.128,0,1,1,0,.255Z" transform="translate(-91.727 -35.681)" fill="#5956e9"/>
    <path id="Path_5484" data-name="Path 5484" d="M196.693,116.438a.128.128,0,0,1-.008-.255,9.5,9.5,0,0,0,7.045-3.543,9.783,9.783,0,0,0,1.727-3.214.13.13,0,0,1,.159-.091.127.127,0,0,1,.093.155,9.857,9.857,0,0,1-1.767,3.3,9.756,9.756,0,0,1-7.24,3.648Z" transform="translate(-90.995 -50.612)" fill="#5956e9"/>
    <path id="Path_5485" data-name="Path 5485" d="M200.365,115.014a.129.129,0,0,1-.126-.095.127.127,0,0,1,.092-.156,5.135,5.135,0,0,0,3.808-3.479.129.129,0,0,1,.155-.1.127.127,0,0,1,.1.151,4.506,4.506,0,0,1-.731,1.505,5.7,5.7,0,0,1-3.264,2.166Z" transform="translate(-92.695 -51.471)" fill="#5956e9"/>
    <path id="Path_5486" data-name="Path 5486" d="M222.628,112.98c-.08,1.117-.765,1.948-.768,2.683s-.871.255-.469-1.2-.194-2.859-.512-2.846.1,1.638-.233,2.178-.586-.593-.879-1.294a6.5,6.5,0,0,1,.142-3.3c.276-1.062-1.077-7.8-.9-9.7l-.488-2.464-.285-1.437-.053-1.5,2.606-1.012c.1.482.2.981.3,1.483q.066.332.13.665c.348,1.8.661,3.565.789,4.7a66.929,66.929,0,0,1-.226,9.539A13.05,13.05,0,0,1,222.628,112.98Z" transform="translate(-101.003 -43.093)" fill="#f49477"/>
    <path id="Path_5487" data-name="Path 5487" d="M221.216,95.236a5.789,5.789,0,0,1-2.7,1.8l-.285-1.437-.053-1.5,2.606-1.012c.1.482.2.981.3,1.483Q221.153,94.9,221.216,95.236Z" transform="translate(-101.003 -43.093)" fill="#f36156"/>
    <path id="Path_5488" data-name="Path 5488" d="M221.416,88.477a5.514,5.514,0,0,1-.853.758,4.961,4.961,0,0,1-2.848,1.029,58.67,58.67,0,0,0-.665-8.7A30.408,30.408,0,0,1,221.416,88.477Z" transform="translate(-100.479 -37.757)" fill="#5956e9"/>
    <path id="Path_5489" data-name="Path 5489" d="M214.936,92.017a20.57,20.57,0,0,1,1.505,2.759l.106.228c.036.076.056.121.057.124a.13.13,0,0,0,.12.076h0c0-.065,0-.13-.005-.195h.114l-.12-.259c-.077-.163-.182-.386-.306-.64a16.546,16.546,0,0,0-1.263-2.244.132.132,0,0,0-.182-.027A.126.126,0,0,0,214.936,92.017Z" transform="translate(-99.489 -42.504)" fill="#5956e9"/>
    <path id="Path_5490" data-name="Path 5490" d="M204.011,58.436a3.531,3.531,0,0,1-3.713,3.8,3.772,3.772,0,0,1-3.9-3.921c0-2.252,1.361-3.959,3.66-3.959C202.813,54.361,204.011,56.184,204.011,58.436Z" transform="translate(-90.918 -25.165)" fill="#343054"/>
    <path id="Path_5491" data-name="Path 5491" d="M209.4,63.395s.639-.834,1.113-.144-.2,2.728-1.359,2.23Z" transform="translate(-96.822 -29.154)" fill="#f36156"/>
    <path id="Path_5492" data-name="Path 5492" d="M209.541,65.48a.1.1,0,0,0,.095-.07,1.506,1.506,0,0,1,.852-.887.1.1,0,0,0,.057-.124.1.1,0,0,0-.127-.056,1.679,1.679,0,0,0-.972,1.015.1.1,0,0,0,.068.118Z" transform="translate(-96.957 -29.783)" fill="#f04147"/>
    <path id="Path_5493" data-name="Path 5493" d="M210.514,65.489l.053-.015a.1.1,0,0,0,.03-.133.89.89,0,0,0-.369-.291.1.1,0,0,0-.129.049.1.1,0,0,0,.049.127.7.7,0,0,1,.284.22A.1.1,0,0,0,210.514,65.489Z" transform="translate(-97.257 -30.11)" fill="#f04147"/>
    <path id="Path_5494" data-name="Path 5494" d="M196.268,63.395s-.639-.834-1.113-.144.2,2.728,1.359,2.23Z" transform="translate(-90.272 -29.154)" fill="#f36156"/>
    <path id="Path_5495" data-name="Path 5495" d="M196.468,65.48a.1.1,0,0,1-.095-.07,1.506,1.506,0,0,0-.852-.887.1.1,0,0,1-.057-.124.1.1,0,0,1,.127-.056,1.679,1.679,0,0,1,.972,1.015.1.1,0,0,1-.068.118Z" transform="translate(-90.484 -29.783)" fill="#f04147"/>
    <path id="Path_5496" data-name="Path 5496" d="M196.007,65.489l-.053-.015a.1.1,0,0,1-.03-.133.894.894,0,0,1,.369-.291.1.1,0,0,1,.129.049.1.1,0,0,1-.049.127.7.7,0,0,0-.284.22A.1.1,0,0,1,196.007,65.489Z" transform="translate(-90.692 -30.11)" fill="#f04147"/>
    <path id="Path_5497" data-name="Path 5497" d="M200.557,70.856v2.026s.617,1.032,1.451,1.1,1.574-.889,1.574-.889V71Z" transform="translate(-92.844 -32.802)" fill="#f49477"/>
    <path id="Path_5498" data-name="Path 5498" d="M200.557,70.857v.9c.56.608,1.554.76,3.025.548V71Z" transform="translate(-92.844 -32.802)" fill="#f36156"/>
    <path id="Path_5499" data-name="Path 5499" d="M203.883,60.3a11.81,11.81,0,0,1-.168,1.334c-.277,1.494-.9,2.963-2.248,3.434-3.047,1.066-4.137-1.495-4.572-2.987-.048-.166-.091-.35-.129-.547-.069-.356-.123-.753-.165-1.152-.05-.485-.083-.975-.1-1.407a2.107,2.107,0,0,1,1.378-2.07,5.857,5.857,0,0,1,4.947.157,2.109,2.109,0,0,1,1.1,1.8C203.927,59.267,203.921,59.763,203.883,60.3Z" transform="translate(-90.964 -26.122)" fill="#f49477"/>
    <path id="Path_5500" data-name="Path 5500" d="M201.955,66.873h0a1.928,1.928,0,0,1-.409.3c-.772.409-.856.347-1.16.36a2.336,2.336,0,0,1-1.173-.313,3.345,3.345,0,0,1-.557-.416s-.313-1.049,1.676-.786C202.325,65.688,201.988,66.668,201.955,66.873Zm1.639-3.157c-.1.184-.673,1.91-.832,2.152-.36-.777-2.1-.212-2.1-.212a1.1,1.1,0,0,1-.664,0l-.009,0s-1.759-.54-2.105.273c-.161-.241-.657-1.934-.75-2.213h-.445c.042.4.1.8.165,1.152.038.2.081.381.129.547.436,1.493,1.525,4.054,4.572,2.987,1.346-.471,1.971-1.94,2.248-3.434a11.933,11.933,0,0,0,.168-1.334Z" transform="translate(-91.054 -29.459)" fill="#343054"/>
    <path id="Path_5501" data-name="Path 5501" d="M205.917,63.909c0,.216.113.392.253.392s.255-.175.255-.392-.114-.392-.255-.392S205.917,63.693,205.917,63.909Z" transform="translate(-95.325 -29.404)" fill="#343054"/>
    <path id="Path_5502" data-name="Path 5502" d="M200.341,63.894c0,.216.114.392.255.392s.254-.176.254-.392-.114-.392-.254-.392S200.341,63.678,200.341,63.894Z" transform="translate(-92.744 -29.397)" fill="#343054"/>
    <path id="Path_5503" data-name="Path 5503" d="M206.78,62.026a2.671,2.671,0,0,0-1.723-.06l.075.409a4.9,4.9,0,0,1,1.655.129A.7.7,0,0,0,206.78,62.026Z" transform="translate(-94.927 -28.628)" fill="#343054"/>
    <path id="Path_5504" data-name="Path 5504" d="M199.215,62.026a2.671,2.671,0,0,1,1.723-.06l-.075.409a4.9,4.9,0,0,0-1.655.129A.7.7,0,0,1,199.215,62.026Z" transform="translate(-92.202 -28.628)" fill="#343054"/>
    <path id="Path_5505" data-name="Path 5505" d="M203.063,65.446a1.06,1.06,0,0,1-.356-.073.1.1,0,0,1-.054-.125.1.1,0,0,1,.128-.053.6.6,0,0,0,.394.036.105.105,0,0,0,.048-.09,14.244,14.244,0,0,0-.06-1.474.1.1,0,0,1,.2-.016,13.928,13.928,0,0,1,.06,1.51.3.3,0,0,1-.143.235A.422.422,0,0,1,203.063,65.446Z" transform="translate(-93.811 -29.425)" fill="#f36156"/>
    <path id="Path_5506" data-name="Path 5506" d="M203.777,68.383a1.254,1.254,0,0,1-1.247,1.124,1.207,1.207,0,0,1-1.241-1.124Z" transform="translate(-93.183 -31.657)" fill="#fff"/>
    <path id="Path_5507" data-name="Path 5507" d="M196.6,60.38h.446c-.049-.438-.12-1.21.248-1.32,1.16-.349-.344-1.153.18-1.553s1.827-.23,2.734-.258a19.867,19.867,0,0,1,2.734.065c.357.08.162.66.031,1.11s.437.945.533,1.411a2.024,2.024,0,0,1,0,.546h.372c.044-.566.05-1.093.042-1.52a2.108,2.108,0,0,0-1.1-1.8,5.856,5.856,0,0,0-4.947-.156,2.109,2.109,0,0,0-1.379,2.069C196.518,59.4,196.551,59.895,196.6,60.38Z" transform="translate(-90.963 -26.122)" fill="#343054"/>
    <path id="Path_5508" data-name="Path 5508" d="M55.63,152.236h-22.6a4.46,4.46,0,0,1,4.269-3.908l7.033.02,7.033-.02A4.46,4.46,0,0,1,55.63,152.236Z" transform="translate(-15.289 -68.666)" fill="#fff"/>
    <path id="Path_5509" data-name="Path 5509" d="M37.57,176.076H36.339V155H37.57Z" transform="translate(-16.822 -71.755)" fill="#fff"/>
    <path id="Path_5510" data-name="Path 5510" d="M70.742,176.076H69.51V155h1.231Z" transform="translate(-32.179 -71.755)" fill="#fff"/>
    <path id="Path_5511" data-name="Path 5511" d="M55.218,167.183H38.633V166H55.218Z" transform="translate(-17.884 -76.845)" fill="#cfe6f4"/>
    <path id="Path_5512" data-name="Path 5512" d="M40.067,102.782s-3.775,5.034-4.277,9.425c-.355,3.1,4.277,7.735,4.277,7.735l1.6-.794-1.591-3.586c-.566-1.747-1.263-2.437-.748-4.2l1.152-2.484Z" transform="translate(-16.559 -47.581)" fill="#5956e9"/>
    <path id="Path_5513" data-name="Path 5513" d="M64.557,102.64s3.726,5.369,4.035,9.777c.266,3.8-4.3,7.459-4.3,7.459l-1.317-.656L64.8,115.6c.566-1.747.835-2.8.063-4.7l-.979-2.084Z" transform="translate(-29.155 -47.515)" fill="#5956e9"/>
    <path id="Path_5514" data-name="Path 5514" d="M43.039,113.071l-2.5,7.96s10.834,1.382,14.147.488L53,112.849l1.165-11.32a16.122,16.122,0,0,0-5.1-1.246,13.163,13.163,0,0,0-6.8,1.322Z" transform="translate(-18.766 -46.405)" fill="#5956e9"/>
    <path id="Path_5515" data-name="Path 5515" d="M49.614,105.322a11.3,11.3,0,0,0,4.715-2,.133.133,0,0,0-.16-.214,10.622,10.622,0,0,1-5.16,1.984.133.133,0,0,0,0,.267A5.919,5.919,0,0,0,49.614,105.322Z" transform="translate(-22.627 -47.721)" fill="#5956e9"/>
    <path id="Path_5516" data-name="Path 5516" d="M53.828,186.66l.2,1.757,1.869.043L56.05,187Z" transform="translate(-24.919 -86.411)" fill="#f49477"/>
    <path id="Path_5517" data-name="Path 5517" d="M46.774,134.755s-4.841-.266-6.48,1.075-1.31,5.191.36,6.242,4.518,3.116,4.518,3.116l1.811,18.006,2.393.081s2.205-18.087,1.087-21.59A27.615,27.615,0,0,0,46.774,134.755Z" transform="translate(-18.156 -62.372)" fill="#1e1d33"/>
    <path id="Path_5518" data-name="Path 5518" d="M56.039,186.184a2,2,0,0,1-.062,1.233l-2.754-.061a3.166,3.166,0,0,1-.053-1.208Z" transform="translate(-24.598 -86.174)" fill="#343054"/>
    <path id="Path_5519" data-name="Path 5519" d="M54.066,127.622h-12.7l-1.174-6.865a.973.973,0,0,1,.959-1.137H54.28a.973.973,0,0,1,.959,1.137Z" transform="translate(-18.598 -55.376)" fill="#fff"/>
    <path id="Path_5520" data-name="Path 5520" d="M54.065,136.013H43.417a1.034,1.034,0,0,1-1.034-1.034v-.459H55.1v.459A1.034,1.034,0,0,1,54.065,136.013Z" transform="translate(-19.62 -62.273)" fill="#cfe6f4"/>
    <path id="Path_5521" data-name="Path 5521" d="M54.412,126.645a1.1,1.1,0,1,1-1.1-1.1A1.1,1.1,0,0,1,54.412,126.645Z" transform="translate(-24.168 -58.117)" fill="#cfe6f4"/>
    <path id="Path_5522" data-name="Path 5522" d="M38.685,177.456l-.414,1.739,1.677.331.684-1.553Z" transform="translate(-17.717 -82.15)" fill="#f49477"/>
    <path id="Path_5523" data-name="Path 5523" d="M49.043,133.989S45.8,132.87,43.9,135.218s-5.083,22.165-5.083,22.165l2.182.9,7.013-17.6s5.711,3.259,6.4-1.374C54.963,135.643,49.043,133.989,49.043,133.989Z" transform="translate(-17.97 -61.904)" fill="#343054"/>
    <path id="Path_5524" data-name="Path 5524" d="M41.1,176.936a2.065,2.065,0,0,1-.458,1.19l-2.681-.948a3.265,3.265,0,0,1,.337-1.2Z" transform="translate(-17.572 -81.465)" fill="#4c4685"/>
    <path id="Path_5525" data-name="Path 5525" d="M35.4,179.664a10.229,10.229,0,0,0-1.316-.575c-.3-.059-2.771,1.694-3.471,1.678-1.27-.031-1.677,1.834-.955,2.087a22.007,22.007,0,0,0,5.952.643,17.086,17.086,0,0,0,.874-3.1C36.5,179.612,35.956,180.016,35.4,179.664Z" transform="translate(-13.567 -82.905)" fill="#5956e9"/>
    <path id="Path_5526" data-name="Path 5526" d="M35.124,182.123a.159.159,0,0,0,.12,0,.147.147,0,0,0,.084-.193,2.322,2.322,0,0,0-.672-.913,1.063,1.063,0,0,0-1.072-.1.146.146,0,0,0-.06.2.154.154,0,0,0,.206.061.761.761,0,0,1,.753.085,2.055,2.055,0,0,1,.562.777A.154.154,0,0,0,35.124,182.123Z" transform="translate(-15.511 -83.706)" fill="#fff"/>
    <path id="Path_5527" data-name="Path 5527" d="M36.072,181.467a.158.158,0,0,0,.12,0,.148.148,0,0,0,.084-.193,2.323,2.323,0,0,0-.672-.913,1.062,1.062,0,0,0-1.072-.1.146.146,0,0,0-.06.2.154.154,0,0,0,.206.06.762.762,0,0,1,.753.085,2.042,2.042,0,0,1,.562.777A.151.151,0,0,0,36.072,181.467Z" transform="translate(-15.949 -83.403)" fill="#fff"/>
    <path id="Path_5528" data-name="Path 5528" d="M33.9,182.589a.154.154,0,0,0,.12,0,.147.147,0,0,0,.084-.193,2.319,2.319,0,0,0-.672-.912,1.063,1.063,0,0,0-1.072-.1.147.147,0,0,0-.06.2.155.155,0,0,0,.206.06.761.761,0,0,1,.753.085,2.043,2.043,0,0,1,.562.777A.151.151,0,0,0,33.9,182.589Z" transform="translate(-14.945 -83.922)" fill="#fff"/>
    <path id="Path_5529" data-name="Path 5529" d="M54.536,189.519a9.688,9.688,0,0,1,1.332-.322c.291-.006,2.321,2.052,2.982,2.151,1.2.182,1.27,2,.55,2.119a20.986,20.986,0,0,1-5.7-.384,16.3,16.3,0,0,1-.306-3.059C53.512,189.287,53.96,189.757,54.536,189.519Z" transform="translate(-24.71 -87.585)" fill="#5956e9"/>
    <path id="Path_5530" data-name="Path 5530" d="M58.747,192.467a.148.148,0,0,1-.113-.016.141.141,0,0,1-.047-.2,2.215,2.215,0,0,1,.783-.746,1.015,1.015,0,0,1,1.024.082.139.139,0,0,1,.023.2.147.147,0,0,1-.2.023.726.726,0,0,0-.722-.045,1.958,1.958,0,0,0-.657.636A.144.144,0,0,1,58.747,192.467Z" transform="translate(-27.112 -88.609)" fill="#fff"/>
    <path id="Path_5531" data-name="Path 5531" d="M57.974,191.7a.147.147,0,0,1-.113-.017.14.14,0,0,1-.047-.2,2.212,2.212,0,0,1,.783-.745,1.016,1.016,0,0,1,1.025.081.14.14,0,0,1,.023.2.147.147,0,0,1-.2.023.726.726,0,0,0-.722-.045,1.945,1.945,0,0,0-.657.636A.144.144,0,0,1,57.974,191.7Z" transform="translate(-26.754 -88.252)" fill="#fff"/>
    <path id="Path_5532" data-name="Path 5532" d="M59.82,193.108a.147.147,0,0,1-.113-.017.14.14,0,0,1-.047-.2,2.219,2.219,0,0,1,.783-.746,1.016,1.016,0,0,1,1.025.081.14.14,0,0,1,.023.2.147.147,0,0,1-.2.023.726.726,0,0,0-.722-.045,1.947,1.947,0,0,0-.657.636A.145.145,0,0,1,59.82,193.108Z" transform="translate(-27.608 -88.906)" fill="#fff"/>
    <path id="Path_5533" data-name="Path 5533" d="M53.731,81.641A9.172,9.172,0,0,1,55.1,86.513c-.169,2.486.227,5.355-2,5.228s-6.191.892-7.452-1.044S53.731,81.641,53.731,81.641Z" transform="translate(-21.08 -37.794)" fill="#343054"/>
    <path id="Path_5534" data-name="Path 5534" d="M58.192,89.775s.4,3.6-1.31,4.595a2.523,2.523,0,0,1-2.947-.115S57.538,89.233,58.192,89.775Z" transform="translate(-24.968 -41.541)" fill="#1c1a2c"/>
    <path id="Path_5535" data-name="Path 5535" d="M47.585,89.426s-.614-.818-1.07-.142.189,2.676,1.306,2.188Z" transform="translate(-21.465 -41.209)" fill="#f36156"/>
    <path id="Path_5536" data-name="Path 5536" d="M47.786,91.472A.1.1,0,0,1,47.7,91.4a1.462,1.462,0,0,0-.819-.87.094.094,0,1,1,.067-.176,1.626,1.626,0,0,1,.934,1,.1.1,0,0,1-.065.116Z" transform="translate(-21.672 -41.826)" fill="#f04147"/>
    <path id="Path_5537" data-name="Path 5537" d="M47.339,91.481l-.051-.015a.1.1,0,0,1-.028-.13.866.866,0,0,1,.355-.286.094.094,0,1,1,.077.172.687.687,0,0,0-.273.216A.094.094,0,0,1,47.339,91.481Z" transform="translate(-21.871 -42.146)" fill="#f04147"/>
    <path id="Path_5538" data-name="Path 5538" d="M60.215,89.426s.614-.818,1.07-.142-.189,2.676-1.307,2.188Z" transform="translate(-27.766 -41.209)" fill="#f36156"/>
    <path id="Path_5539" data-name="Path 5539" d="M60.347,91.472a.094.094,0,0,0,.091-.069,1.461,1.461,0,0,1,.819-.87.094.094,0,0,0-.067-.176,1.626,1.626,0,0,0-.934,1,.1.1,0,0,0,.065.116Z" transform="translate(-27.893 -41.826)" fill="#f04147"/>
    <path id="Path_5540" data-name="Path 5540" d="M61.278,91.481l.051-.015a.094.094,0,0,0,.028-.13A.861.861,0,0,0,61,91.05a.094.094,0,1,0-.077.172.685.685,0,0,1,.273.216A.094.094,0,0,0,61.278,91.481Z" transform="translate(-28.179 -42.146)" fill="#f04147"/>
    <path id="Path_5541" data-name="Path 5541" d="M54.832,96.747v1.988s-.593,1.012-1.395,1.081-1.512-.872-1.512-.872V96.886Z" transform="translate(-24.037 -44.787)" fill="#f49477"/>
    <path id="Path_5542" data-name="Path 5542" d="M54.832,96.746v.882c-.538.6-1.493.808-2.907.6V96.886Z" transform="translate(-24.037 -44.787)" fill="#f36156"/>
    <path id="Path_5543" data-name="Path 5543" d="M55.094,85.088a19.35,19.35,0,0,1-.258,2.511c-.037.193-.079.374-.125.536-.418,1.465-1.465,3.977-4.394,2.93-1.294-.462-1.894-1.9-2.161-3.369a14.161,14.161,0,0,1-.2-2.72,2.075,2.075,0,0,1,1.053-1.766,5.525,5.525,0,0,1,4.755-.153A2.069,2.069,0,0,1,55.094,85.088Z" transform="translate(-22.201 -38.234)" fill="#f49477"/>
    <path id="Path_5544" data-name="Path 5544" d="M51.7,90.019c0,.212-.109.384-.244.384s-.244-.172-.244-.384.109-.384.244-.384S51.7,89.807,51.7,90.019Z" transform="translate(-23.707 -41.495)" fill="#343054"/>
    <path id="Path_5545" data-name="Path 5545" d="M57.324,90.019c0,.212-.109.384-.244.384s-.244-.172-.244-.384.109-.384.244-.384S57.324,89.807,57.324,90.019Z" transform="translate(-26.311 -41.495)" fill="#343054"/>
    <path id="Path_5546" data-name="Path 5546" d="M50.433,87.835a4.081,4.081,0,0,1,1.045-.157.182.182,0,0,1,.181.213v0a.181.181,0,0,1-.187.148,4.583,4.583,0,0,0-1.431.176.274.274,0,0,1,.083-.194A.628.628,0,0,1,50.433,87.835Z" transform="translate(-23.165 -40.589)" fill="#343054"/>
    <path id="Path_5547" data-name="Path 5547" d="M57.059,87.85a4.073,4.073,0,0,0-1.045-.156.182.182,0,0,0-.181.213v0a.181.181,0,0,0,.187.148,4.591,4.591,0,0,1,1.431.175.275.275,0,0,0-.083-.194A.63.63,0,0,0,57.059,87.85Z" transform="translate(-25.846 -40.596)" fill="#343054"/>
    <path id="Path_5548" data-name="Path 5548" d="M54.286,91.668a.4.4,0,0,1-.205-.049.288.288,0,0,1-.137-.23A13.9,13.9,0,0,1,54,89.907a.094.094,0,1,1,.188.015,14.27,14.27,0,0,0-.057,1.446.1.1,0,0,0,.047.088.567.567,0,0,0,.379-.036.094.094,0,0,1,.071.175A1,1,0,0,1,54.286,91.668Z" transform="translate(-24.968 -41.581)" fill="#f36156"/>
    <path id="Path_5549" data-name="Path 5549" d="M52.354,94.371a1.125,1.125,0,0,0,1.108,1.02,1.083,1.083,0,0,0,1.1-1.02Z" transform="translate(-24.236 -43.687)" fill="#fff"/>
    <path id="Path_5550" data-name="Path 5550" d="M53.975,97.034a.942.942,0,0,1-.443-.13.094.094,0,0,1,.1-.161.758.758,0,0,0,.344.1.8.8,0,0,0,.363-.1.094.094,0,0,1,.1.162A.984.984,0,0,1,53.975,97.034Z" transform="translate(-24.761 -44.779)" fill="#f36156"/>
    <path id="Path_5551" data-name="Path 5551" d="M55.27,83.39a.313.313,0,0,1-.228.174,6.055,6.055,0,0,1-.034.7c-.117,1.365-.461,1.6-.539,1.267a15.747,15.747,0,0,1-.024-1.929,4.508,4.508,0,0,1-.5-.063l-.317-1.325-.111,1.309a4.144,4.144,0,0,1-1.583-.1l-.371-1.306-.23,1.257a2.647,2.647,0,0,1-1.6.116l-.2-1.355-.473,1.355s-1.519.545-1.536,0a10.188,10.188,0,0,1,.419-1.9,2.861,2.861,0,0,1,1.38-1.752,5.03,5.03,0,0,1,4.562-.065C55.329,80.635,55.27,83.39,55.27,83.39Z" transform="translate(-21.998 -36.69)" fill="#343054"/>
    <path id="Path_5552" data-name="Path 5552" d="M47.264,81.829A9,9,0,0,0,45.6,85.974c-.411,2.657-.981,4.621.62,5.5,1.733.95,1.583-1,1.558-1.528a8.057,8.057,0,0,1-.515-6.052A3.543,3.543,0,0,0,47.264,81.829Z" transform="translate(-20.904 -37.881)" fill="#343054"/>
    <path id="Path_5553" data-name="Path 5553" d="M48.534,92.054v0c0,.02,0,.125.01.291,0,.1.01.227.019.369a6.044,6.044,0,0,0,.745,2.978,1.709,1.709,0,0,0,1.05.362v-.7a2.785,2.785,0,0,1-1.152-1.069,6.58,6.58,0,0,1-.637-1.964Z" transform="translate(-22.468 -42.614)" fill="#1c1a2c"/>
    <path id="Path_5554" data-name="Path 5554" d="M60.9,93.482a.221.221,0,1,1-.221-.221A.221.221,0,0,1,60.9,93.482Z" transform="translate(-27.988 -43.173)" fill="#fff"/>
    <path id="Path_5555" data-name="Path 5555" d="M180.088,52.216H174.66a.755.755,0,0,1-.754-.755V46.034a.754.754,0,0,1,.754-.754h5.428a.754.754,0,0,1,.755.754v5.427A.755.755,0,0,1,180.088,52.216Z" transform="translate(-80.506 -20.961)" fill="#f7941d"/>
    <path id="Path_5556" data-name="Path 5556" d="M180.69,49.7a2.362,2.362,0,1,1-2.362-2.362A2.351,2.351,0,0,1,180.69,49.7Z" transform="translate(-81.46 -21.915)" fill="#f0b93a"/>
    <path id="Path_5557" data-name="Path 5557" d="M180.613,51.823a2.362,2.362,0,0,1-3.642,0L177,51.76a.832.832,0,0,1,.207-.261.823.823,0,0,1,.293-.159,1.461,1.461,0,0,0,.941-.58,1.022,1.022,0,0,1-.474-.505c-.267.057-.459-.437-.316-.568a.21.21,0,0,1,.158-.061.981.981,0,0,1,1.961,0,.208.208,0,0,1,.157.061c.143.131-.049.626-.316.568a.9.9,0,0,1-.439.474,1.424,1.424,0,0,0,.907.611.821.821,0,0,1,.292.159.832.832,0,0,1,.207.261Z" transform="translate(-81.925 -22.532)" fill="#fff"/>
    <path id="Path_5558" data-name="Path 5558" d="M12.286,120.889H6.859a.754.754,0,0,1-.754-.754v-5.428a.754.754,0,0,1,.754-.754h5.427a.754.754,0,0,1,.754.754v5.428A.754.754,0,0,1,12.286,120.889Z" transform="translate(-2.826 -52.752)" fill="#f7941d"/>
    <path id="Path_5559" data-name="Path 5559" d="M11.255,118.1a.641.641,0,1,1,.641-.641A.641.641,0,0,1,11.255,118.1Zm.1-1.974a1.518,1.518,0,0,0-1.41,2.289c.2.338.408.673.6,1.018l.719,1.3,1.1-1.979c.064-.116.134-.228.2-.343a1.5,1.5,0,0,0,.208-.8A1.525,1.525,0,0,0,11.359,116.125Z" transform="translate(-4.508 -53.756)" fill="#fff"/>
    <path id="Path_5560" data-name="Path 5560" d="M228.48,65.059A1.063,1.063,0,1,0,227.418,64,1.064,1.064,0,0,0,228.48,65.059Zm0-2.611A1.548,1.548,0,1,1,226.932,64,1.55,1.55,0,0,1,228.48,62.448Z" transform="translate(-105.054 -28.909)" fill="#5956e9"/>
    <path id="Path_5561" data-name="Path 5561" d="M218.1,54.945a1.063,1.063,0,1,0-1.063-1.063A1.063,1.063,0,0,0,218.1,54.945Zm0-2.611a1.548,1.548,0,1,1-1.548,1.548A1.55,1.55,0,0,1,218.1,52.334Z" transform="translate(-100.249 -24.227)" fill="#f7941d"/>
    <path id="Path_5562" data-name="Path 5562" d="M215.662,42.966a.243.243,0,0,1,.243.243V44.28a.243.243,0,0,1-.486,0V43.209A.243.243,0,0,1,215.662,42.966Z" transform="translate(-99.724 -19.89)" fill="#5956e9"/>
    <path id="Path_5563" data-name="Path 5563" d="M215.662,39.476a.243.243,0,0,1,.243.243V40.79a.243.243,0,0,1-.486,0V39.719A.243.243,0,0,1,215.662,39.476Z" transform="translate(-99.724 -18.275)" fill="#5956e9"/>
    <path id="Path_5564" data-name="Path 5564" d="M212.871,42.218h.962a.243.243,0,0,1,0,.486h-.962a.243.243,0,0,1,0-.486Z" transform="translate(-98.432 -19.544)" fill="#5956e9"/>
    <path id="Path_5565" data-name="Path 5565" d="M216.678,42.218h.962a.243.243,0,0,1,0,.486h-.962a.243.243,0,0,1,0-.486Z" transform="translate(-100.194 -19.544)" fill="#5956e9"/>
    <path id="Path_5566" data-name="Path 5566" d="M231.589,54.14a.243.243,0,0,1,.243.243v1.071a.243.243,0,0,1-.486,0V54.383A.243.243,0,0,1,231.589,54.14Z" transform="translate(-107.097 -25.063)" fill="#f7941d"/>
    <path id="Path_5567" data-name="Path 5567" d="M231.589,50.651a.243.243,0,0,1,.243.243v1.071a.243.243,0,0,1-.486,0V50.893A.243.243,0,0,1,231.589,50.651Z" transform="translate(-107.097 -23.448)" fill="#f7941d"/>
    <path id="Path_5568" data-name="Path 5568" d="M228.787,53.393h.962a.243.243,0,0,1,0,.486h-.962a.243.243,0,1,1,0-.486Z" transform="translate(-105.8 -24.717)" fill="#f7941d"/>
    <path id="Path_5569" data-name="Path 5569" d="M232.6,53.393h.962a.243.243,0,0,1,0,.486H232.6a.243.243,0,1,1,0-.486Z" transform="translate(-107.564 -24.717)" fill="#f7941d"/>
    <path id="Path_5570" data-name="Path 5570" d="M49.947,26.121a1.063,1.063,0,1,0,1.062,1.063A1.064,1.064,0,0,0,49.947,26.121Zm0-.486A1.548,1.548,0,1,1,48.4,27.184,1.55,1.55,0,0,1,49.947,25.636Z" transform="translate(-22.405 -11.868)" fill="#5956e9"/>
    <path id="Path_5571" data-name="Path 5571" d="M39.449,16.6a1.063,1.063,0,1,0,1.063,1.062A1.064,1.064,0,0,0,39.449,16.6Zm0-.486A1.548,1.548,0,1,1,37.9,17.662,1.55,1.55,0,0,1,39.449,16.113Z" transform="translate(-17.546 -7.459)" fill="#f7941d"/>
    <path id="Path_5572" data-name="Path 5572" d="M36.982,32.383a.243.243,0,0,0,.243.243H38.3a.243.243,0,0,0,0-.486H37.225A.243.243,0,0,0,36.982,32.383Z" transform="translate(-17.12 -14.879)" fill="#5956e9"/>
    <path id="Path_5573" data-name="Path 5573" d="M33.495,32.383a.243.243,0,0,0,.243.243h1.071a.243.243,0,0,0,0-.486H33.738A.243.243,0,0,0,33.495,32.383Z" transform="translate(-15.506 -14.879)" fill="#5956e9"/>
    <path id="Path_5574" data-name="Path 5574" d="M36.229,29.584v.962a.243.243,0,0,0,.486,0v-.962a.243.243,0,0,0-.486,0Z" transform="translate(-16.772 -13.583)" fill="#5956e9"/>
    <path id="Path_5575" data-name="Path 5575" d="M36.229,33.391v.962a.243.243,0,0,0,.486,0v-.962a.243.243,0,0,0-.486,0Z" transform="translate(-16.772 -15.345)" fill="#5956e9"/>
    <path id="Path_5576" data-name="Path 5576" d="M58.1,16.808a.243.243,0,0,0,.243.243H59.41a.243.243,0,1,0,0-.486H58.339A.243.243,0,0,0,58.1,16.808Z" transform="translate(-26.895 -7.669)" fill="#f7941d"/>
    <path id="Path_5577" data-name="Path 5577" d="M54.609,16.808a.243.243,0,0,0,.243.243h1.071a.243.243,0,0,0,0-.486H54.852A.243.243,0,0,0,54.609,16.808Z" transform="translate(-25.28 -7.669)" fill="#f7941d"/>
    <path id="Path_5578" data-name="Path 5578" d="M57.354,14.009v.962a.243.243,0,1,0,.486,0v-.962a.243.243,0,1,0-.486,0Z" transform="translate(-26.551 -6.373)" fill="#f7941d"/>
    <path id="Path_5579" data-name="Path 5579" d="M57.354,17.816v.962a.243.243,0,1,0,.486,0v-.962a.243.243,0,0,0-.486,0Z" transform="translate(-26.551 -8.135)" fill="#f7941d"/>
    <path id="Path_5580" data-name="Path 5580" d="M178.173,30.5a.218.218,0,0,0,.1,0c.368-.09.581-.127.583-.128a.193.193,0,0,0,.165-.223.2.2,0,0,0-.238-.155c-.009,0-.229.039-.613.134a.192.192,0,0,0-.147.235A.2.2,0,0,0,178.173,30.5Z" transform="translate(-82.41 -13.882)" fill="#cfe6f4"/>
    <path id="Path_5581" data-name="Path 5581" d="M155.34,47.1c-.191.327-.374.665-.546,1.007a.209.209,0,0,1-.235.1l-.038-.013a.188.188,0,0,1-.1-.256c.175-.348.363-.694.557-1.027a.212.212,0,0,1,.278-.076A.186.186,0,0,1,155.34,47.1Z" transform="translate(-71.478 -21.672)" fill="#cfe6f4"/>
    <path id="Path_5582" data-name="Path 5582" d="M153.53,50.921c-.148.345-.288.7-.417,1.06a.208.208,0,0,1-.244.125l-.016,0a.189.189,0,0,1-.128-.244c.132-.365.275-.729.425-1.081a.21.21,0,0,1,.267-.106A.189.189,0,0,1,153.53,50.921Z" transform="translate(-70.696 -23.451)" fill="#cfe6f4"/>
    <path id="Path_5583" data-name="Path 5583" d="M150.868,60.338a.193.193,0,0,1-.153-.211c.053-.383.114-.765.184-1.138a.2.2,0,0,1,.237-.156.193.193,0,0,1,.167.222c-.068.367-.129.744-.18,1.121a.2.2,0,0,1-.229.166Z" transform="translate(-69.77 -27.234)" fill="#cfe6f4"/>
    <path id="Path_5584" data-name="Path 5584" d="M152.059,54.689a.191.191,0,0,1,.142.237c-.05.169-.1.339-.144.508-.052.194-.1.393-.15.59a.205.205,0,0,1-.244.146h-.006a.192.192,0,0,1-.149-.229c.048-.2.1-.4.153-.6.047-.171.1-.345.147-.517a.206.206,0,0,1,.247-.134Z" transform="translate(-70.135 -25.314)" fill="#cfe6f4"/>
    <path id="Path_5585" data-name="Path 5585" d="M156.959,44.465a.212.212,0,0,1-.223.084l-.06-.024a.186.186,0,0,1-.063-.266c.219-.324.45-.646.689-.955a.213.213,0,0,1,.286-.043.185.185,0,0,1,.046.268C157.4,43.832,157.173,44.147,156.959,44.465Z" transform="translate(-72.486 -20.01)" fill="#cfe6f4"/>
    <path id="Path_5586" data-name="Path 5586" d="M175.139,31.222c-.374.12-.753.254-1.127.4a.216.216,0,0,1-.128.009.2.2,0,0,1-.139-.113.189.189,0,0,1,.111-.251c.382-.148.77-.285,1.151-.408a.208.208,0,0,1,.26.12A.19.19,0,0,1,175.139,31.222Z" transform="translate(-80.425 -14.28)" fill="#cfe6f4"/>
    <path id="Path_5587" data-name="Path 5587" d="M169.963,33.356a.217.217,0,0,1-.15.019.206.206,0,0,1-.129-.093.186.186,0,0,1,.079-.262c.356-.186.723-.366,1.09-.533a.212.212,0,0,1,.274.089.187.187,0,0,1-.1.257C170.673,33,170.313,33.173,169.963,33.356Z" transform="translate(-78.54 -15.031)" fill="#cfe6f4"/>
    <path id="Path_5588" data-name="Path 5588" d="M162.689,38.13a.214.214,0,0,1-.19.046.207.207,0,0,1-.1-.055.184.184,0,0,1,.01-.272c.3-.261.608-.518.923-.762a.214.214,0,0,1,.288.026.185.185,0,0,1-.027.271C163.284,37.623,162.98,37.874,162.689,38.13Z" transform="translate(-75.154 -17.148)" fill="#cfe6f4"/>
    <path id="Path_5589" data-name="Path 5589" d="M166.164,35.534a.217.217,0,0,1-.171.031.2.2,0,0,1-.115-.073.185.185,0,0,1,.045-.269c.329-.224.67-.443,1.016-.65a.213.213,0,0,1,.283.059.186.186,0,0,1-.062.266C166.821,35.1,166.486,35.314,166.164,35.534Z" transform="translate(-76.772 -15.991)" fill="#cfe6f4"/>
    <path id="Path_5590" data-name="Path 5590" d="M159.6,41.12a.215.215,0,0,1-.288.026.184.184,0,0,1-.027-.271c.26-.3.533-.586.813-.865a.215.215,0,0,1,.29-.008.184.184,0,0,1,.009.272C160.122,40.547,159.854,40.832,159.6,41.12Z" transform="translate(-73.716 -18.494)" fill="#cfe6f4"/>
    <path id="Path_5591" data-name="Path 5591" d="M178.334,25.748l-.415-3.206,10.86,1.558Z" transform="translate(-82.364 -10.436)" fill="#5956e9"/>
    <path id="Path_5592" data-name="Path 5592" d="M189.04,25.442l-10.032,2.464-.026.007-.5.578.117-1.4Z" transform="translate(-82.623 -11.778)" fill="#5956e9"/>
    <path id="Path_5593" data-name="Path 5593" d="M178.477,30.621l.9-.011-.4-.567Z" transform="translate(-82.623 -13.908)" fill="#3751ab"/>
    <path id="Path_5594" data-name="Path 5594" d="M180.677,27.6l-1.263.31,2.054,2.924,8.006-5.4Z" transform="translate(-83.056 -11.778)" fill="#5956e9"/>
  </g>
</svg>
