<svg xmlns="http://www.w3.org/2000/svg" width="48" height="48" viewBox="0 0 48 48">
  <g id="twitter" transform="translate(-101 -420)">
    <g id="Rectangle_384" data-name="Rectangle 384" transform="translate(101 420)" fill="#fff" stroke="#a4a4ba" stroke-width="1">
      <rect width="48" height="48" rx="24" stroke="none"/>
      <rect x="0.5" y="0.5" width="47" height="47" rx="23.5" fill="none"/>
    </g>
    <path id="Path_5600" data-name="Path 5600" d="M21.275,2.282A8.947,8.947,0,0,1,18.8,2.96,4.266,4.266,0,0,0,20.69.588a8.574,8.574,0,0,1-2.721,1.039,4.29,4.29,0,0,0-7.422,2.934,4.418,4.418,0,0,0,.1.978A12.144,12.144,0,0,1,1.8,1.051,4.292,4.292,0,0,0,3.122,6.786a4.237,4.237,0,0,1-1.939-.528V6.3A4.31,4.31,0,0,0,4.621,10.52a4.282,4.282,0,0,1-1.125.141,3.794,3.794,0,0,1-.812-.073,4.331,4.331,0,0,0,4.009,2.989,8.621,8.621,0,0,1-5.32,1.83,8.039,8.039,0,0,1-1.027-.059,12.079,12.079,0,0,0,6.582,1.926A12.128,12.128,0,0,0,19.14,5.064c0-.19-.006-.373-.016-.555A8.56,8.56,0,0,0,21.275,2.282Z" transform="translate(114.574 435.729)" fill="#565572"/>
  </g>
</svg>
