<svg xmlns="http://www.w3.org/2000/svg" width="48" height="48" viewBox="0 0 48 48">
  <g id="whatsapp" transform="translate(-290 -420)">
    <g id="Rectangle_387" data-name="Rectangle 387" transform="translate(290 420)" fill="#fff" stroke="#a4a4ba" stroke-width="1">
      <rect width="48" height="48" rx="24" stroke="none"/>
      <rect x="0.5" y="0.5" width="47" height="47" rx="23.5" fill="none"/>
    </g>
    <g id="Group_591" data-name="Group 591" transform="translate(-0.501 -0.445)">
      <path id="Path_5597" data-name="Path 5597" d="M7.692,5.284c-.23-.512-.473-.522-.692-.531-.179-.008-.384-.007-.589-.007a1.129,1.129,0,0,0-.82.385A3.446,3.446,0,0,0,4.515,7.694,5.98,5.98,0,0,0,5.77,10.874a12.619,12.619,0,0,0,5.251,4.64c2.6,1.024,3.125.82,3.689.769a3.1,3.1,0,0,0,2.075-1.461,2.568,2.568,0,0,0,.179-1.462c-.077-.128-.282-.2-.589-.359s-1.819-.9-2.1-1-.487-.154-.692.154-.794,1-.973,1.2-.359.231-.666.077a8.41,8.41,0,0,1-2.472-1.526,9.259,9.259,0,0,1-1.71-2.129c-.179-.307-.019-.474.135-.627.138-.138.307-.359.461-.538A2.108,2.108,0,0,0,8.665,8.1a.566.566,0,0,0-.026-.539C8.563,7.413,7.965,5.892,7.692,5.284Z" transform="translate(304.285 433.32)" fill="#565572" fill-rule="evenodd"/>
      <path id="Path_5598" data-name="Path 5598" d="M21.212,3.609A12.3,12.3,0,0,0,1.848,18.449L.1,24.823l6.522-1.71a12.294,12.294,0,0,0,5.879,1.5h.005a12.3,12.3,0,0,0,8.7-21Zm-8.7,18.924h0a10.214,10.214,0,0,1-5.2-1.425l-.374-.222L3.057,21.9,4.09,18.128l-.243-.387a10.226,10.226,0,1,1,8.663,4.791Z" transform="translate(302.542 431.446)" fill="#565572"/>
    </g>
  </g>
</svg>
