<svg id="world_icon" data-name="world icon" xmlns="http://www.w3.org/2000/svg" width="17.337" height="16.9" viewBox="0 0 17.337 16.9">
  <path id="Path_4003" data-name="Path 4003" d="M232.473,347.958a5.612,5.612,0,0,0,1.96-2.53.639.639,0,0,0-.475-.888,15.81,15.81,0,0,0-1.79-.2.641.641,0,0,0-.679.64v2.442A.642.642,0,0,0,232.473,347.958Z" transform="translate(-222.509 -331.178)" fill="#565572"/>
  <path id="Path_4004" data-name="Path 4004" d="M279.374,364.147c.079-.023.157-.046.235-.071s.131-.044.2-.067.153-.054.229-.083.129-.051.193-.077l.222-.093c.064-.028.128-.058.191-.087s.144-.068.215-.1l.187-.1q.1-.056.208-.115c.062-.035.122-.071.183-.107l.2-.125c.06-.038.119-.077.178-.117s.131-.09.2-.137l.172-.125.189-.148c.056-.044.111-.088.166-.134s.122-.105.182-.159.106-.094.158-.142.117-.113.175-.17.1-.1.15-.149l.027-.029a10.486,10.486,0,0,0-1.538-.645.638.638,0,0,0-.791.37,7.732,7.732,0,0,1-1.8,2.688l.076-.018C279.243,364.187,279.309,364.166,279.374,364.147Z" transform="translate(-268.264 -347.324)" fill="#565572"/>
  <path id="Path_4005" data-name="Path 4005" d="M342.192,231.672h-2.423a.642.642,0,0,0-.64.613,16.162,16.162,0,0,1-.453,3.106.643.643,0,0,0,.424.766,10.832,10.832,0,0,1,1.326.534.64.64,0,0,0,.794-.2,8.707,8.707,0,0,0,1.608-4.1A.641.641,0,0,0,342.192,231.672Z" transform="translate(-325.497 -222.911)" fill="#565572"/>
  <path id="Path_4006" data-name="Path 4006" d="M232.13,115.984h2.744a.642.642,0,0,0,.64-.678,15.587,15.587,0,0,0-.432-2.886.64.64,0,0,0-.743-.472,16.413,16.413,0,0,1-2.239.268.642.642,0,0,0-.611.64v2.487A.641.641,0,0,0,232.13,115.984Z" transform="translate(-222.509 -107.847)" fill="#565572"/>
  <path id="Path_4007" data-name="Path 4007" d="M231.489,8.232v2.441a.641.641,0,0,0,.679.64,15.843,15.843,0,0,0,1.79-.2.639.639,0,0,0,.475-.888,5.613,5.613,0,0,0-1.96-2.53A.642.642,0,0,0,231.489,8.232Z" transform="translate(-222.509 -7.572)" fill="#565572"/>
  <path id="Path_4008" data-name="Path 4008" d="M232.1,235.44a16.415,16.415,0,0,1,2.239.268.64.64,0,0,0,.743-.472,15.587,15.587,0,0,0,.432-2.886.642.642,0,0,0-.64-.678H232.13a.641.641,0,0,0-.641.641V234.8A.642.642,0,0,0,232.1,235.44Z" transform="translate(-222.509 -222.911)" fill="#565572"/>
  <path id="Path_4009" data-name="Path 4009" d="M340.426,85.476a10.841,10.841,0,0,1-1.326.535.642.642,0,0,0-.424.766,16.163,16.163,0,0,1,.453,3.106.642.642,0,0,0,.64.613h2.423a.641.641,0,0,0,.637-.716,8.71,8.71,0,0,0-1.608-4.1A.64.64,0,0,0,340.426,85.476Z" transform="translate(-325.497 -82.358)" fill="#565572"/>
  <path id="Path_4010" data-name="Path 4010" d="M283.192,9.515l-.027-.029c-.049-.051-.1-.1-.151-.149s-.115-.115-.175-.17-.1-.094-.158-.142-.121-.108-.183-.159-.109-.089-.164-.133-.126-.1-.191-.149-.113-.084-.171-.125-.131-.094-.2-.138-.117-.078-.177-.115-.135-.086-.2-.127-.121-.072-.182-.106-.14-.078-.21-.116l-.187-.1c-.072-.036-.144-.071-.218-.105s-.126-.059-.19-.087-.148-.062-.223-.093-.128-.052-.193-.077-.152-.056-.229-.082-.13-.045-.2-.067-.156-.048-.236-.071c-.065-.019-.13-.038-.2-.056l-.076-.019a7.733,7.733,0,0,1,1.8,2.688.638.638,0,0,0,.791.37A10.454,10.454,0,0,0,283.192,9.515Z" transform="translate(-268.226 -7.103)" fill="#565572"/>
  <path id="Path_4011" data-name="Path 4011" d="M1.932,90.5H4.355A.642.642,0,0,0,5,89.883a16.166,16.166,0,0,1,.453-3.106.643.643,0,0,0-.424-.766A10.821,10.821,0,0,1,3.7,85.476a.64.64,0,0,0-.794.2,8.708,8.708,0,0,0-1.608,4.1A.641.641,0,0,0,1.932,90.5Z" transform="translate(-1.291 -82.358)" fill="#565572"/>
  <path id="Path_4012" data-name="Path 4012" d="M141.636,347.417v-2.441a.641.641,0,0,0-.679-.64,15.844,15.844,0,0,0-1.79.2.639.639,0,0,0-.475.888,5.612,5.612,0,0,0,1.96,2.53A.642.642,0,0,0,141.636,347.417Z" transform="translate(-133.279 -331.179)" fill="#565572"/>
  <path id="Path_4013" data-name="Path 4013" d="M115.7,231.672h-2.744a.642.642,0,0,0-.64.678,15.585,15.585,0,0,0,.432,2.886.64.64,0,0,0,.743.471,16.407,16.407,0,0,1,2.239-.268.642.642,0,0,0,.611-.64v-2.487A.641.641,0,0,0,115.7,231.672Z" transform="translate(-107.982 -222.911)" fill="#565572"/>
  <path id="Path_4014" data-name="Path 4014" d="M140.651,7.691a5.612,5.612,0,0,0-1.96,2.53.639.639,0,0,0,.475.888,15.82,15.82,0,0,0,1.79.2.641.641,0,0,0,.679-.64V8.232A.642.642,0,0,0,140.651,7.691Z" transform="translate(-133.278 -7.572)" fill="#565572"/>
  <path id="Path_4015" data-name="Path 4015" d="M115.727,112.216a16.413,16.413,0,0,1-2.239-.268.64.64,0,0,0-.743.472,15.584,15.584,0,0,0-.432,2.886.642.642,0,0,0,.64.678H115.7a.641.641,0,0,0,.641-.641v-2.487A.642.642,0,0,0,115.727,112.216Z" transform="translate(-107.982 -107.847)" fill="#565572"/>
  <path id="Path_4016" data-name="Path 4016" d="M66.23,7.095l-.076.018c-.066.018-.131.037-.2.056s-.156.046-.234.071-.131.044-.2.067-.153.054-.228.082-.129.051-.194.077l-.222.093c-.064.028-.128.058-.191.087s-.144.069-.215.1l-.187.1q-.1.056-.208.115t-.184.107c-.068.041-.135.083-.2.125s-.119.077-.178.117-.131.09-.2.136l-.172.125c-.064.048-.125.1-.189.148s-.111.088-.165.134-.122.1-.182.158-.107.094-.159.143-.117.113-.175.169-.1.1-.151.15l-.027.029a10.462,10.462,0,0,0,1.539.645.638.638,0,0,0,.791-.37A7.73,7.73,0,0,1,66.23,7.095Z" transform="translate(-59.732 -7.095)" fill="#565572"/>
  <path id="Path_4017" data-name="Path 4017" d="M62.318,361.941c.058.057.116.115.175.17s.105.093.158.141.121.108.183.159.109.089.164.133.125.1.191.149.113.083.17.125.131.093.2.138.117.078.177.115.135.086.2.127.121.072.182.106.14.079.21.116l.187.1c.072.036.144.071.218.105l.19.087c.074.033.148.062.223.093s.128.052.193.077.152.056.229.083.13.045.2.067.156.048.236.071c.065.019.13.038.2.056l.076.019a7.735,7.735,0,0,1-1.8-2.688.638.638,0,0,0-.791-.37,10.457,10.457,0,0,0-1.538.646l.027.029C62.217,361.842,62.267,361.891,62.318,361.941Z" transform="translate(-59.769 -347.277)" fill="#565572"/>
  <path id="Path_4018" data-name="Path 4018" d="M3.7,236.691a10.829,10.829,0,0,1,1.326-.534.643.643,0,0,0,.424-.766A16.167,16.167,0,0,1,5,232.285a.642.642,0,0,0-.64-.613H1.934a.641.641,0,0,0-.637.716,8.709,8.709,0,0,0,1.608,4.1A.64.64,0,0,0,3.7,236.691Z" transform="translate(-1.293 -222.911)" fill="#565572"/>
</svg>
